<svg xmlns="http://www.w3.org/2000/svg" xmlns:xlink="http://www.w3.org/1999/xlink" viewBox="0 0 150 150"><defs><style>.a{fill:#1a171b;}.b{fill:#f8f5f6;}.c{fill:#36363a;}.d{fill:url(#a);}.e{fill:#262326;}.f{fill:#e3dedd;}.g{fill:#f8f7f7;}.h{fill:url(#b);}.i{fill:url(#c);}.j{fill:url(#d);}.k{fill:url(#e);}.l{fill:url(#f);}.m{fill:url(#g);}.n{fill:url(#h);}.o{fill:url(#i);}.p{fill:url(#j);}.q{fill:url(#k);}.r{fill:url(#l);}.s{fill:url(#m);}.t{fill:url(#n);}.u{fill:url(#o);}.v{fill:url(#p);}.w{fill:url(#q);}.x{fill:url(#r);}.y{fill:url(#s);}</style><linearGradient id="a" x1="-120.75" y1="385.07" x2="-119.75" y2="385.07" gradientTransform="matrix(-90.76, 0, 0, 90.76, -10839.2, -34874.93)" gradientUnits="userSpaceOnUse"><stop offset="0" stop-color="#727375"/><stop offset="0.4" stop-color="#49484b"/><stop offset="0.79" stop-color="#272528"/><stop offset="1" stop-color="#1a171b"/></linearGradient><linearGradient id="b" x1="-220.08" y1="411.45" x2="-219.08" y2="411.45" gradientTransform="matrix(3.75, -1.11, -1.11, -3.75, 1292.99, 1390)" gradientUnits="userSpaceOnUse"><stop offset="0" stop-color="#8d8e90"/><stop offset="0.08" stop-color="#9b9c9d"/><stop offset="0.37" stop-color="#c6c6c7"/><stop offset="0.63" stop-color="#e5e5e6"/><stop offset="0.85" stop-color="#f8f8f8"/><stop offset="1" stop-color="#fff"/></linearGradient><linearGradient id="c" x1="-89.85" y1="421.36" x2="-88.85" y2="421.36" gradientTransform="matrix(-5.39, -5.39, -5.39, 5.39, 1911.7, -2634.91)" xlink:href="#b"/><linearGradient id="d" x1="-161.48" y1="474.95" x2="-160.48" y2="474.95" gradientTransform="matrix(1.43, -3.71, -3.71, -1.43, 2042.2, 216.94)" xlink:href="#b"/><linearGradient id="e" x1="-70.63" y1="373.42" x2="-69.63" y2="373.42" gradientTransform="matrix(-6.76, 1.56, 1.56, 6.76, -920.53, -2356.59)" xlink:href="#b"/><linearGradient id="f" x1="-102.82" y1="333.76" x2="-101.82" y2="333.76" gradientTransform="matrix(-2.64, 6.38, 6.38, 2.64, -2301.11, -212.07)" xlink:href="#b"/><linearGradient id="g" x1="-72.18" y1="397.55" x2="-71.18" y2="397.55" gradientTransform="matrix(-6.93, -1.53, -1.53, 6.93, 122.43, -2805.42)" gradientUnits="userSpaceOnUse"><stop offset="0" stop-color="#fff"/><stop offset="0.11" stop-color="#fdfdfd"/><stop offset="1" stop-color="#f0f0f0"/></linearGradient><linearGradient id="h" x1="-72.18" y1="397.55" x2="-71.18" y2="397.55" gradientTransform="matrix(-6.93, -1.53, -1.53, 6.93, 122.43, -2805.42)" gradientUnits="userSpaceOnUse"><stop offset="0" stop-color="#545457"/><stop offset="0.11" stop-color="#525255"/><stop offset="1" stop-color="#454548"/></linearGradient><linearGradient id="i" x1="-170.03" y1="404.02" x2="-169.03" y2="404.02" gradientTransform="matrix(7.21, -3.19, -3.19, -7.21, 2540.82, 2489.61)" xlink:href="#g"/><linearGradient id="j" x1="-170.03" y1="406.29" x2="-169.03" y2="406.29" gradientTransform="matrix(7.21, -3.19, -3.19, -7.21, 2540.82, 2489.61)" gradientUnits="userSpaceOnUse"><stop offset="0" stop-color="#f9f6f7"/><stop offset="0.11" stop-color="#f7f4f5"/><stop offset="1" stop-color="#eae7e8"/></linearGradient><linearGradient id="k" x1="-170.03" y1="404.02" x2="-169.03" y2="404.02" gradientTransform="matrix(7.21, -3.19, -3.19, -7.21, 2540.82, 2489.61)" xlink:href="#h"/><linearGradient id="l" x1="-132.27" y1="384.88" x2="-131.27" y2="384.88" gradientTransform="matrix(53.04, 0, 0, -53.04, 7076.96, 20545.64)" gradientUnits="userSpaceOnUse"><stop offset="0" stop-color="#1a171b"/><stop offset="1" stop-color="#1a171b"/></linearGradient><linearGradient id="m" x1="-103" y1="414.08" x2="-102" y2="414.08" gradientTransform="matrix(-6.52, -8.32, -8.32, 6.52, 2910.44, -3464.25)" gradientUnits="userSpaceOnUse"><stop offset="0" stop-color="#1a171b"/><stop offset="0.32" stop-color="#1d1a1e"/><stop offset="0.54" stop-color="#252326"/><stop offset="0.72" stop-color="#333235"/><stop offset="0.88" stop-color="#474749"/><stop offset="1" stop-color="#5a5b5d"/></linearGradient><linearGradient id="n" x1="-72.62" y1="371.08" x2="-71.62" y2="371.08" gradientTransform="matrix(-6.84, 1.94, 1.94, 6.84, -1092.93, -2365.58)" gradientUnits="userSpaceOnUse"><stop offset="0" stop-color="#474749"/><stop offset="0.51" stop-color="#535355"/><stop offset="1" stop-color="#58585a"/></linearGradient><linearGradient id="o" x1="-98.55" y1="479.28" x2="-97.55" y2="479.28" gradientTransform="matrix(-1.13, -3.77, -3.77, 1.13, 1757.03, -898.38)" xlink:href="#g"/><linearGradient id="p" x1="-98.54" y1="472.43" x2="-97.54" y2="472.43" gradientTransform="matrix(-1.13, -3.77, -3.77, 1.13, 1757.03, -898.38)" xlink:href="#j"/><linearGradient id="q" x1="-98.55" y1="479.28" x2="-97.55" y2="479.28" gradientTransform="matrix(-1.13, -3.77, -3.77, 1.13, 1757.03, -898.38)" xlink:href="#h"/><linearGradient id="r" x1="-157.9" y1="353.48" x2="-156.9" y2="353.48" gradientTransform="matrix(6.21, 5.75, 5.75, -6.21, -1028.74, 3130.34)" xlink:href="#b"/><linearGradient id="s" x1="-128.27" y1="381.62" x2="-127.27" y2="381.62" gradientTransform="matrix(58, 58, 58, -58, -14647.28, 29617.74)" xlink:href="#a"/></defs><path class="a" d="M31,75.65a44.57,44.57,0,1,1,44.57,44.57A44.56,44.56,0,0,1,31,75.65Z"/><path class="b" d="M27.81,95.2a51.3,51.3,0,0,1-3-9.62q-.43-2.07-.69-4.2L12,82.9q.31,2.64.86,5.19A63,63,0,0,0,16.58,100c.31.7.63,1.39,1,2.08l11-5.2c-.27-.56-.53-1.12-.77-1.68Z"/><path class="b" d="M128.13,109.83l-10.21-6.69a51.45,51.45,0,0,1-6.63,8.15,52,52,0,0,1-4.23,3.77l7.62,9.53a61.08,61.08,0,0,0,5.24-4.67A63.74,63.74,0,0,0,128.13,109.83Z"/><path class="b" d="M55.91,122.65a52.69,52.69,0,0,1-6.75-3.3L43,129.89A62.09,62.09,0,0,0,51.37,134a63.55,63.55,0,0,0,10.27,3.13l2.57-11.94a50.43,50.43,0,0,1-8.3-2.52Z"/><path class="b" d="M122.19,54.8a51.53,51.53,0,0,1,3,9.62q.43,2.07.69,4.2L138,67.1q-.32-2.64-.86-5.19A63,63,0,0,0,133.42,50c-.31-.7-.63-1.39-.95-2.08l-11,5.2C121.69,53.68,122,54.24,122.19,54.8Z"/><path class="b" d="M94.09,27.35a52.69,52.69,0,0,1,6.75,3.3L107,20.11A62.09,62.09,0,0,0,98.63,16a63.55,63.55,0,0,0-10.27-3.13L85.79,24.83a50.43,50.43,0,0,1,8.3,2.52Z"/><path class="c" d="M138,67.1l-12.1,1.52h0c-.18-1.42-.41-2.82-.7-4.2a51.17,51.17,0,0,0-3-9.61c-.25-.57-.51-1.13-.77-1.69h0l11-5.2a62.64,62.64,0,0,0-4.62-8.19,63.63,63.63,0,0,0-18.12-17.93c-.89-.58-1.8-1.14-2.72-1.67l-6.14,10.54h0a50,50,0,0,0-15-5.82l2.57-11.94-.94-.19A63.39,63.39,0,0,0,75,11.52a64.16,64.16,0,0,0-13.09,1.35A63.43,63.43,0,0,0,39.75,22.2c-1.52,1-3,2.11-4.4,3.24L43,35a48.85,48.85,0,0,0-4.23,3.77A51.2,51.2,0,0,0,32,47l.07-.11L21.91,40.2l-.09.13a63.05,63.05,0,0,0-5.76,11.06,62.08,62.08,0,0,0-3.32,11.2A63.39,63.39,0,0,0,11.52,75,64.32,64.32,0,0,0,12,82.9l12.1-1.52h0c.18,1.42.41,2.82.7,4.2a50.94,50.94,0,0,0,3,9.61c.25.57.51,1.13.77,1.68l-11,5.2a62.64,62.64,0,0,0,4.62,8.19,63.5,63.5,0,0,0,18.13,17.93c.89.58,1.79,1.14,2.71,1.67l6.14-10.54h0a50.59,50.59,0,0,0,15.79,6l-.75-.17-2.57,11.94.94.19a63.4,63.4,0,0,0,47.66-9.46c1.52-1,3-2.1,4.4-3.24L107,115a48.85,48.85,0,0,0,4.23-3.77,51.38,51.38,0,0,0,6.63-8.14l10.2,6.68.09-.12a63.5,63.5,0,0,0,5.76-11.07,62.08,62.08,0,0,0,3.32-11.2A63.39,63.39,0,0,0,138.48,75a64.45,64.45,0,0,0-.49-7.9ZM120.7,51.73l-.27-.52.27.52Zm-1.92-3.43c-.36-.6-.74-1.19-1.12-1.77.38.58.76,1.17,1.12,1.77Zm1,1.74c-.16-.3-.33-.59-.5-.88.17.29.34.58.5.88ZM46.52,32.34c-.61.42-1.22.85-1.82,1.29.6-.44,1.21-.87,1.82-1.29ZM23.93,79.67l0,.23,0-.23Zm-.19-3.15c0,.12,0,.25,0,.37,0-.12,0-.25,0-.37Zm.07,1.55c0,.11,0,.23,0,.35,0-.12,0-.24,0-.35Zm5.5,20.2c.08.17.17.35.27.53-.1-.18-.19-.36-.27-.53Zm1.91,3.43c.36.6.74,1.19,1.12,1.77-.38-.58-.76-1.17-1.12-1.77Zm-1-1.74c.16.3.33.59.5.89-.17-.3-.34-.59-.5-.89Zm73.26,17.7q.93-.63,1.83-1.29-.9.66-1.83,1.29Zm8.86-18.32a45.16,45.16,0,0,1-5.82,7.17,44.65,44.65,0,0,1-22.32,12.12,44.61,44.61,0,0,1-40.7-12.12,44.66,44.66,0,0,1-9.47-14,43.67,43.67,0,0,1-2.65-8.35,44.61,44.61,0,0,1,12.12-40.7,44.66,44.66,0,0,1,14-9.47,43.67,43.67,0,0,1,8.35-2.65,44.79,44.79,0,0,1,17.91-.09,44.27,44.27,0,0,1,7.86,2.34,44.86,44.86,0,0,1,14.93,9.87,44.65,44.65,0,0,1,12.12,22.32,44.44,44.44,0,0,1-6.3,33.53Zm13.72-29.23,0,.21,0-.21Zm.12,1.48c0,.11,0,.22,0,.34,0-.12,0-.23,0-.34Zm.08,1.52c0,.13,0,.25,0,.37,0-.12,0-.24,0-.37Z"/><path class="b" d="M38.71,38.71a52,52,0,0,1,4.23-3.77l-7.62-9.53a62.82,62.82,0,0,0-5.24,4.67,63.74,63.74,0,0,0-8.21,10.09l10.21,6.69a51.45,51.45,0,0,1,6.63-8.15Z"/><path class="d" d="M58.58,36.64A42.31,42.31,0,0,1,75,33.29,41.51,41.51,0,0,1,97.79,40a41.54,41.54,0,0,1,15.57,18.55,41.11,41.11,0,0,1,2.45,7.81,41.59,41.59,0,0,1,.9,8.6,42.27,42.27,0,0,1-.8,8.16,41.72,41.72,0,0,1-6,14.63,41.61,41.61,0,0,1-18.54,15.57A41.71,41.71,0,0,1,52.21,110,41.61,41.61,0,0,1,36.64,91.42,41.71,41.71,0,0,1,40,52.21a41.66,41.66,0,0,1,5.45-6.72,42.52,42.52,0,0,1,6.34-5.2A42,42,0,0,1,58.58,36.64ZM113,99.8a44.46,44.46,0,0,0,4.11-7.92,45.42,45.42,0,0,0,2.26-26.23A45,45,0,0,0,107.1,42.9,45.34,45.34,0,0,0,99.8,37a45.29,45.29,0,0,0-15.93-6.48,45.36,45.36,0,0,0-18.22.11,45.23,45.23,0,0,0-15.86,6.64A45.68,45.68,0,0,0,37,50.2a45.29,45.29,0,0,0-6.48,15.93,45.36,45.36,0,0,0,.11,18.22,45.23,45.23,0,0,0,6.64,15.86A45.68,45.68,0,0,0,50.2,113a45.29,45.29,0,0,0,15.93,6.48,45.36,45.36,0,0,0,18.22-.11,45.23,45.23,0,0,0,15.86-6.64,45.34,45.34,0,0,0,6.89-5.66A44.81,44.81,0,0,0,113,99.8Z"/><path class="e" d="M109.1,52.24l3-2a44.13,44.13,0,0,0-5.56-6.77L104,46A40.82,40.82,0,0,1,109.1,52.24Z"/><path class="f" d="M112.7,58.87,116,57.45a43.64,43.64,0,0,0-3.92-7.21l-3,2A41.15,41.15,0,0,1,112.7,58.87Z"/><path class="e" d="M115.13,66.55l3.53-.74A43.76,43.76,0,0,0,116,57.45l-3.31,1.42A40.64,40.64,0,0,1,115.13,66.55Z"/><path class="f" d="M104,104l2.55,2.54a44.62,44.62,0,0,0,5.82-7.17l-3-2A40.87,40.87,0,0,1,104,104Z"/><path class="f" d="M36.94,59.75l-3.35-1.34a45.25,45.25,0,0,0-2.35,7.87l3.54.7A41,41,0,0,1,36.94,59.75Z"/><path class="e" d="M34.87,83.45l-3.53.75A43.89,43.89,0,0,0,34,92.55l3.31-1.42A40.41,40.41,0,0,1,34.87,83.45Z"/><path class="e" d="M34.78,67l-3.54-.7A44.69,44.69,0,0,0,30.38,75H34A41.62,41.62,0,0,1,34.78,67Z"/><path class="f" d="M34,75H30.38a45,45,0,0,0,1,9.2l3.53-.75A41.26,41.26,0,0,1,34,75Z"/><path class="f" d="M37.3,91.13,34,92.55a43.64,43.64,0,0,0,3.92,7.21l3-2A41.15,41.15,0,0,1,37.3,91.13Z"/><path class="f" d="M46,104l-2.55,2.54a45.06,45.06,0,0,0,7.17,5.82l2-3A40.84,40.84,0,0,1,46,104Z"/><path class="e" d="M40.9,97.76l-3,2a44.13,44.13,0,0,0,5.56,6.77L46,104A41.39,41.39,0,0,1,40.9,97.76Z"/><path class="e" d="M52.61,109.33l-2,3a44.47,44.47,0,0,0,7.77,4.06l1.34-3.35A40.7,40.7,0,0,1,52.61,109.33Z"/><path class="e" d="M40.67,52.61l-3-2a44.47,44.47,0,0,0-4.06,7.77l3.35,1.34A40.7,40.7,0,0,1,40.67,52.61Z"/><path class="f" d="M75,34V30.38a44.83,44.83,0,0,0-9.19,1l.74,3.53A41.26,41.26,0,0,1,75,34Z"/><path class="f" d="M58.87,37.3,57.45,34a43.64,43.64,0,0,0-7.21,3.92l2,3A40.43,40.43,0,0,1,58.87,37.3Z"/><path class="e" d="M66.55,34.87l-.74-3.53A43.76,43.76,0,0,0,57.45,34l1.42,3.31A40.41,40.41,0,0,1,66.55,34.87Z"/><path class="f" d="M46,46l-2.54-2.55a44.62,44.62,0,0,0-5.82,7.17l3,2A40.84,40.84,0,0,1,46,46Z"/><path class="e" d="M52.24,40.91l-2-3a44.13,44.13,0,0,0-6.77,5.56L46,46A41.33,41.33,0,0,1,52.24,40.91Z"/><path class="f" d="M115.13,66.55A41.26,41.26,0,0,1,116,75h3.61a44.83,44.83,0,0,0-1-9.19Z"/><path class="e" d="M115.22,83l3.53.7a43.93,43.93,0,0,0,.87-8.72H116A41.62,41.62,0,0,1,115.22,83Z"/><path class="f" d="M104,46l2.55-2.55a44.62,44.62,0,0,0-7.17-5.82l-2,3A40.37,40.37,0,0,1,104,46Z"/><path class="f" d="M113.06,90.25l3.35,1.34a44.37,44.37,0,0,0,2.34-7.87l-3.53-.7A41,41,0,0,1,113.06,90.25Z"/><path class="f" d="M59.75,113.06l-1.34,3.35a44.37,44.37,0,0,0,7.87,2.34l.7-3.53A41,41,0,0,1,59.75,113.06Z"/><path class="e" d="M97.39,40.67l2-3a44.47,44.47,0,0,0-7.77-4.06l-1.34,3.35A40.7,40.7,0,0,1,97.39,40.67Z"/><path class="f" d="M90.25,36.94l1.34-3.35a44.37,44.37,0,0,0-7.87-2.34L83,34.78A41,41,0,0,1,90.25,36.94Z"/><path class="e" d="M109.33,97.39l3,2a44.47,44.47,0,0,0,4.06-7.77l-3.35-1.34A40.7,40.7,0,0,1,109.33,97.39Z"/><path class="f" d="M75,116v3.61a44.83,44.83,0,0,0,9.19-1l-.74-3.53A41.26,41.26,0,0,1,75,116Z"/><path class="e" d="M83,34.78l.7-3.53A43.93,43.93,0,0,0,75,30.38V34A41.62,41.62,0,0,1,83,34.78Z"/><path class="e" d="M67,115.22l-.7,3.53a43.93,43.93,0,0,0,8.72.87V116A41.62,41.62,0,0,1,67,115.22Z"/><path class="e" d="M83.45,115.13l.74,3.53A43.76,43.76,0,0,0,92.55,116l-1.42-3.31A40.41,40.41,0,0,1,83.45,115.13Z"/><path class="f" d="M91.13,112.7,92.55,116a43.64,43.64,0,0,0,7.21-3.92l-2-3A41.15,41.15,0,0,1,91.13,112.7Z"/><path class="e" d="M97.76,109.1l2,3a44.13,44.13,0,0,0,6.77-5.56L104,104A41.36,41.36,0,0,1,97.76,109.1Z"/><path class="e" d="M24.32,83.08l.06.41Z"/><path class="e" d="M111.29,111.29a51.45,51.45,0,0,0,6.63-8.15A51.45,51.45,0,0,1,111.29,111.29Z"/><path class="e" d="M60,124.09c1.37.42,2.77.77,4.18,1.08C62.79,124.86,61.39,124.5,60,124.09Z"/><path class="e" d="M58,123.42c.55.2,1.11.38,1.67.55C59.09,123.8,58.53,123.62,58,123.42Z"/><path class="e" d="M125.62,66.51l0,.2Z"/><path class="g" d="M35.19,42.62a49.9,49.9,0,0,0-3.1,4.23A49.9,49.9,0,0,1,35.19,42.62Z"/><path class="g" d="M36.9,40.62c-.54.6-1.06,1.21-1.57,1.84C35.84,41.83,36.36,41.22,36.9,40.62Z"/><path class="h" d="M12.88,82.79,12,82.9h0q.31,2.64.86,5.19A63,63,0,0,0,16.58,100c.31.7.63,1.39,1,2.08h0l.83-.39c-.32-.68-.64-1.36-.94-2a62.89,62.89,0,0,1-3.7-11.74c-.35-1.68-.63-3.38-.85-5.11Z"/><path class="i" d="M119.27,119.27a61.07,61.07,0,0,1-5.17,4.6l.58.72a61.08,61.08,0,0,0,5.24-4.67,63.74,63.74,0,0,0,8.21-10.09l-.77-.51A63.51,63.51,0,0,1,119.27,119.27Z"/><path class="j" d="M43.48,129.09l-.46.8h0A62.09,62.09,0,0,0,51.37,134a63.55,63.55,0,0,0,10.27,3.13v0l0-.1.16-.76a62.45,62.45,0,0,1-18.35-7.12Z"/><path class="k" d="M132.57,50.36a62.16,62.16,0,0,1,3.7,11.74c.35,1.68.63,3.39.85,5.11l.91-.11q-.32-2.64-.86-5.19A63,63,0,0,0,133.42,50c-.31-.7-.63-1.39-.95-2.08l-.84.39C132,49,132.27,49.67,132.57,50.36Z"/><path class="l" d="M88.36,12.89h0l0,.23-.14.67a62.53,62.53,0,0,1,18.35,7.11h0l.43-.75,0-.05A62.09,62.09,0,0,0,98.63,16a63.55,63.55,0,0,0-10.27-3.13Z"/><path class="m" d="M21.87,40.17l-.09.13a63.37,63.37,0,0,0-9.09,22.28A64.34,64.34,0,0,0,11.47,75a62.4,62.4,0,0,0,.5,7.9h0a64.32,64.32,0,0,1-.49-7.9,63.39,63.39,0,0,1,1.22-12.41,62.08,62.08,0,0,1,3.32-11.2,63.05,63.05,0,0,1,5.76-11.06l.09-.13,0,0Z"/><path class="n" d="M21.91,40.2l-.09.13a63.05,63.05,0,0,0-5.76,11.06,62.08,62.08,0,0,0-3.32,11.2A63.39,63.39,0,0,0,11.52,75,64.32,64.32,0,0,0,12,82.9l.87-.11A64.53,64.53,0,0,1,12.4,75a62.49,62.49,0,0,1,1.2-12.24,62.52,62.52,0,0,1,9-22l.08-.12-.73-.48Z"/><path class="o" d="M17.58,102.06l0,0a62.64,62.64,0,0,0,4.62,8.19,63.77,63.77,0,0,0,18.14,18c.89.58,1.8,1.14,2.72,1.67l.46-.8h0l-.44.76c-.92-.53-1.82-1.09-2.71-1.67A63.5,63.5,0,0,1,22.2,110.25a62.64,62.64,0,0,1-4.62-8.19Z"/><path class="p" d="M17.58,102.06l0,0h0l0,0Zm.79-.37h0l-.15.07.15-.07Z"/><path class="q" d="M18.37,101.69l-.15.07-.64.3h0a62.64,62.64,0,0,0,4.62,8.19,63.5,63.5,0,0,0,18.13,17.93c.89.58,1.79,1.14,2.71,1.67l.44-.76c-.91-.52-1.8-1.08-2.67-1.65a62.44,62.44,0,0,1-10.08-8.17,62.56,62.56,0,0,1-12.36-17.58Z"/><path class="r" d="M114.1,123.87c-1.4,1.12-2.84,2.2-4.34,3.2a62.73,62.73,0,0,1-47,9.33l-.93-.19-.19.9.94.2a63.31,63.31,0,0,0,47.69-9.47c1.52-1,3-2.11,4.41-3.25Z"/><path class="s" d="M138,67.1l-.91.11h0a62.31,62.31,0,0,1-9.68,42l-.08.12.77.51.09-.13A63.41,63.41,0,0,0,138.53,75,62.4,62.4,0,0,0,138,67.1Z"/><path class="t" d="M106.52,20.91c.91.52,1.8,1.08,2.67,1.65a62.44,62.44,0,0,1,10.08,8.17,62.56,62.56,0,0,1,12.36,17.58l.84-.39A63.69,63.69,0,0,0,109.7,21.78c-.89-.58-1.8-1.14-2.72-1.67Z"/><path class="u" d="M75,11.47a63.56,63.56,0,0,0-13.1,1.36A62.9,62.9,0,0,0,50,16.58a63.61,63.61,0,0,0-10.27,5.58c-1.52,1-3,2.11-4.41,3.25l0,0c1.42-1.13,2.88-2.22,4.4-3.24a63.43,63.43,0,0,1,22.16-9.33A64.16,64.16,0,0,1,75,11.52a63.39,63.39,0,0,1,12.41,1.22l.94.19v0l-.94-.2A63.56,63.56,0,0,0,75,11.47Z"/><path class="v" d="M88.31,13.12l-.14.67h0l.14-.67Zm0-.23v0h0v0Z"/><path class="w" d="M75,11.52a64.16,64.16,0,0,0-13.09,1.35A63.43,63.43,0,0,0,39.75,22.2c-1.52,1-3,2.11-4.4,3.24l.55.69c1.4-1.12,2.84-2.2,4.34-3.2a62.73,62.73,0,0,1,47-9.33l.93.19.14-.67,0-.19h0l-.94-.19A63.39,63.39,0,0,0,75,11.52Z"/><path class="x" d="M30.73,30.73a61.07,61.07,0,0,1,5.17-4.6l-.58-.72a62.82,62.82,0,0,0-5.24,4.67,63.74,63.74,0,0,0-8.21,10.09l.77.51A63.51,63.51,0,0,1,30.73,30.73Z"/><path class="g" d="M85.91,128.54a2.59,2.59,0,1,1,2.59,2.59A2.59,2.59,0,0,1,85.91,128.54Z"/><path class="g" d="M59.65,21.46a2.59,2.59,0,1,1,2.59,2.59A2.59,2.59,0,0,1,59.65,21.46Z"/><path class="g" d="M18.22,65.29a2.59,2.59,0,1,1,2.59,2.59A2.59,2.59,0,0,1,18.22,65.29Z"/><path class="g" d="M32.65,113.19a2.59,2.59,0,1,1,2.59,2.59A2.59,2.59,0,0,1,32.65,113.19Z"/><path class="g" d="M125.86,87.67a2.59,2.59,0,1,1,2.59,2.59A2.59,2.59,0,0,1,125.86,87.67Z"/><path class="g" d="M113.1,38.29a2.59,2.59,0,1,1,2.59,2.59A2.59,2.59,0,0,1,113.1,38.29Z"/><path class="y" d="M109.35,97.4A40.92,40.92,0,0,0,115.2,83a40.84,40.84,0,0,0,.79-8,41.52,41.52,0,0,0-.88-8.45,40.5,40.5,0,0,0-2.42-7.68,41,41,0,0,0-3.58-6.64c-.33-.49-.68-1-1-1.46l-.33-.44c-.26-.35-.53-.69-.8-1-.12-.16-.24-.31-.37-.46-.34-.42-.7-.83-1.06-1.24l-.13-.14c-.45-.5-.91-1-1.39-1.47s-1-1-1.55-1.47h0l-.13-.11c-.44-.39-.88-.77-1.33-1.14l-.49-.39c-.35-.28-.71-.56-1.08-.83L99,41.72c-.51-.37-1-.73-1.55-1.07A40.92,40.92,0,0,0,83,34.8,40.84,40.84,0,0,0,75,34a41.52,41.52,0,0,0-8.45.88,40.5,40.5,0,0,0-7.68,2.42A40.81,40.81,0,0,0,40.65,52.6,40.86,40.86,0,0,0,34.8,67,40.66,40.66,0,0,0,34,75a41.52,41.52,0,0,0,.88,8.45,40.5,40.5,0,0,0,2.42,7.68,41,41,0,0,0,3.58,6.64c.33.49.68,1,1,1.46l.33.44c.26.35.53.69.8,1l.37.45c.34.42.7.84,1.06,1.24s1,1.08,1.52,1.61a41.16,41.16,0,0,0,13.75,9.07A41.26,41.26,0,0,0,67,115.2a40.84,40.84,0,0,0,8,.79,41.52,41.52,0,0,0,8.45-.88,40.5,40.5,0,0,0,7.68-2.42A40.81,40.81,0,0,0,109.35,97.4Zm-1-46.2-.22-.3Zm-.79-1.07c-.19-.24-.38-.49-.58-.73C107.22,49.64,107.41,49.89,107.6,50.13Zm-1.06-1.33c-.33-.4-.66-.79-1-1.18C105.88,48,106.21,48.4,106.54,48.8Zm-4.23-4.39L101,43.32Zm-1.9-1.59-.78-.6Zm-1.6-1.2-.31-.21ZM41.61,98.79l.22.31Zm.79,1.08c.19.24.38.49.58.73C42.78,100.36,42.59,100.11,42.4,99.87Zm1.06,1.33c.33.4.67.79,1,1.18C44.13,102,43.79,101.6,43.46,101.2Z"/><path class="c" d="M114.27,66.73a40.25,40.25,0,0,0-10.91-20.09,40.7,40.7,0,0,0-6.45-5.24,39.62,39.62,0,0,0-7-3.64,40.34,40.34,0,0,0-7.07-2.12c-.57-.11-1.15-.21-1.73-.3l-.53-.07-1.26-.16-.57-.06c-.53,0-1.06-.09-1.6-.12H77c-.66,0-1.32-.05-2-.05s-1.4,0-2.09.05h0l-.17,0c-.57,0-1.14.07-1.71.13l-.6.07-1.32.17-.57.09c-.61.1-1.21.2-1.81.33A40.3,40.3,0,0,0,35.64,67.15,40.65,40.65,0,0,0,34.87,75a40,40,0,0,0,3.24,15.79,40.25,40.25,0,0,0,22,21.45,39.26,39.26,0,0,0,7.07,2.12c.57.11,1.15.21,1.73.3l.53.07,1.26.16.57.06c.53,0,1.06.09,1.6.12q1.08.06,2.16.06a40,40,0,0,0,15.79-3.24,40.94,40.94,0,0,0,6.48-3.52A40.53,40.53,0,0,0,108.6,96.91a39.62,39.62,0,0,0,3.64-7,40.08,40.08,0,0,0,2.12-7.07,40.29,40.29,0,0,0-.09-16.12ZM81.63,35.43l-.36-.06Zm-1.28-.19-.91-.12Zm-1.65-.19c-.51,0-1-.09-1.52-.12C77.69,35,78.19,35,78.7,35.05Zm-8.39.1-1,.13Zm-1.93.28-.37.06Zm0,79.14.37.06Zm2.94.39,1.52.11Z"/></svg>