<svg xmlns="http://www.w3.org/2000/svg" xmlns:xlink="http://www.w3.org/1999/xlink" viewBox="0 0 150 150"><defs><style>.a{fill:#093679;}.b{fill:#f8f5f6;}.c{fill:#1e4e97;}.d{fill:#ea7374;}.e{fill:url(#a);}.f{fill:#e3dedd;}.g{fill:#f8f7f7;}.h{fill:url(#b);}.i{fill:url(#c);}.j{fill:url(#d);}.k{fill:url(#e);}.l{fill:url(#f);}.m{fill:url(#g);}.n{fill:url(#h);}.o{fill:url(#i);}.p{fill:url(#j);}.q{fill:url(#k);}.r{fill:url(#l);}.s{fill:url(#m);}.t{fill:url(#n);}</style><linearGradient id="a" x1="-125.29" y1="214.78" x2="-124.29" y2="214.78" gradientTransform="matrix(-64.21, -64.21, -64.21, 64.21, 5852.89, -21728.08)" gradientUnits="userSpaceOnUse"><stop offset="0" stop-color="#006bb3"/><stop offset="0.31" stop-color="#025fa5"/><stop offset="0.88" stop-color="#083e82"/><stop offset="1" stop-color="#093679"/></linearGradient><linearGradient id="b" x1="-117.18" y1="211.55" x2="-116.18" y2="211.55" gradientTransform="matrix(3.75, -1.11, -1.11, -3.75, 685.77, 755.52)" gradientUnits="userSpaceOnUse"><stop offset="0" stop-color="#8d8e90"/><stop offset="0.08" stop-color="#9b9c9d"/><stop offset="0.37" stop-color="#c6c6c7"/><stop offset="0.63" stop-color="#e5e5e6"/><stop offset="0.85" stop-color="#f8f8f8"/><stop offset="1" stop-color="#fff"/></linearGradient><linearGradient id="c" x1="-128.47" y1="212.33" x2="-127.47" y2="212.33" gradientTransform="matrix(-5.39, -5.39, -5.39, 5.39, 576.78, -1716.38)" xlink:href="#b"/><linearGradient id="d" x1="-123" y1="206.84" x2="-122" y2="206.84" gradientTransform="matrix(1.43, -3.71, -3.71, -1.43, 994.08, -24.16)" xlink:href="#b"/><linearGradient id="e" x1="-129.52" y1="216.68" x2="-128.52" y2="216.68" gradientTransform="matrix(-6.75, 1.56, 1.56, 6.75, -1073.42, -1205.07)" xlink:href="#b"/><linearGradient id="f" x1="-126.26" y1="219.67" x2="-125.26" y2="219.67" gradientTransform="matrix(-2.64, 6.38, 6.38, 2.64, -1634.44, 238.21)" xlink:href="#b"/><linearGradient id="g" x1="-129.83" y1="213.99" x2="-128.83" y2="213.99" gradientTransform="matrix(-6.39, -2.22, -2.22, 6.39, -344.38, -1596.28)" gradientUnits="userSpaceOnUse"><stop offset="0" stop-color="#0071b2"/><stop offset="0.5" stop-color="#006fb0"/><stop offset="0.68" stop-color="#0168aa"/><stop offset="0.81" stop-color="#035c9e"/><stop offset="0.91" stop-color="#064c8e"/><stop offset="1" stop-color="#093679"/></linearGradient><linearGradient id="h" x1="-128.15" y1="218.88" x2="-127.15" y2="218.88" gradientTransform="matrix(-4.85, 4.61, 4.61, 4.85, -1600.79, -354.45)" gradientUnits="userSpaceOnUse"><stop offset="0" stop-color="#0064a8"/><stop offset="0.28" stop-color="#015ca0"/><stop offset="0.71" stop-color="#06488b"/><stop offset="1" stop-color="#093679"/></linearGradient><linearGradient id="i" x1="-124.04" y1="217.45" x2="-123.04" y2="217.45" gradientTransform="matrix(3.14, 12.39, 12.39, -3.14, -2216.79, 2348.13)" gradientUnits="userSpaceOnUse"><stop offset="0" stop-color="#003d7c"/><stop offset="0.21" stop-color="#023571"/><stop offset="0.55" stop-color="#042e68"/><stop offset="1" stop-color="#052c65"/></linearGradient><linearGradient id="j" x1="-123.83" y1="216.39" x2="-122.83" y2="216.39" gradientTransform="matrix(10.17, 15.53, 15.53, -10.17, -1977.44, 4200.4)" gradientUnits="userSpaceOnUse"><stop offset="0" stop-color="#1d67ab"/><stop offset="0.52" stop-color="#1c65a9"/><stop offset="0.7" stop-color="#1a5fa2"/><stop offset="0.84" stop-color="#155397"/><stop offset="0.94" stop-color="#0e4386"/><stop offset="1" stop-color="#093679"/></linearGradient><linearGradient id="k" x1="-121.88" y1="212.63" x2="-120.88" y2="212.63" gradientTransform="matrix(7.4, -4.25, -4.25, -7.4, 1922.62, 1090.53)" xlink:href="#g"/><linearGradient id="l" x1="-127.84" y1="208.33" x2="-126.85" y2="208.33" gradientTransform="matrix(-1.25, -4.44, -4.44, 1.25, 824.39, -816.07)" xlink:href="#g"/><linearGradient id="m" x1="-121.78" y1="217.29" x2="-120.78" y2="217.29" gradientTransform="matrix(6.21, 5.75, 5.75, -6.21, -469.82, 2077.27)" xlink:href="#b"/><linearGradient id="n" x1="-124.68" y1="215.25" x2="-123.68" y2="215.25" gradientTransform="matrix(58, 58, 58, -58, -5206.96, 19760.92)" xlink:href="#a"/></defs><path class="a" d="M122.55,65a49,49,0,0,0-2.88-9.11,48.7,48.7,0,0,0-10.33-15.22,48.12,48.12,0,0,0-7.81-6.34,48.93,48.93,0,0,0-8.46-4.42,47.84,47.84,0,0,0-8.57-2.55c-.69-.14-1.38-.26-2.08-.37l-.65-.09-1.53-.19-.69-.07c-.64-.06-1.28-.11-1.93-.15h-.23c-.79,0-1.59-.06-2.39-.06s-1.69,0-2.53.06h0l-.21,0c-.69,0-1.38.09-2.06.16l-.73.08c-.54.06-1.07.13-1.6.21l-.69.11c-.74.12-1.47.25-2.2.4a47.72,47.72,0,0,0-9.1,2.88A48.9,48.9,0,0,0,40.65,40.66,48.51,48.51,0,0,0,27.35,65.5a48,48,0,0,0-.94,9.5,48.48,48.48,0,0,0,3.92,19.12A49.59,49.59,0,0,0,34.6,102a48.69,48.69,0,0,0,6.06,7.37,48.12,48.12,0,0,0,7.81,6.34,48.93,48.93,0,0,0,8.46,4.42,47.84,47.84,0,0,0,8.57,2.55c.69.14,1.38.26,2.08.37l.65.09,1.53.19.69.07c.64.06,1.29.11,1.93.15.87,0,1.74.07,2.62.07a48.56,48.56,0,0,0,10-1,47.59,47.59,0,0,0,9.11-2.88,48.7,48.7,0,0,0,15.22-10.33,48.12,48.12,0,0,0,6.34-7.81,48.15,48.15,0,0,0,7-17,48,48,0,0,0,.94-9.5A48.56,48.56,0,0,0,122.55,65ZM83,27.09,82.6,27Zm-1.55-.24-1.1-.13Zm-2-.23c-.61-.06-1.22-.1-1.84-.14C78.25,26.52,78.87,26.56,79.48,26.62Zm-7.23-.13c-.67,0-1.32.09-2,.16C70.93,26.58,71.58,26.53,72.25,26.49Zm-2.93.26-1.15.15ZM67,27.08l-.45.08Zm0,95.83.44.08Zm1.56.24,1.1.13Zm2,.23,1.85.14C71.75,123.48,71.13,123.44,70.52,123.38Z"/><path class="b" d="M27.81,95.2a51.3,51.3,0,0,1-3-9.62q-.43-2.07-.69-4.2L12,82.9q.31,2.64.86,5.19A63,63,0,0,0,16.58,100c.31.7.63,1.39,1,2.08l11-5.2C28.31,96.32,28.05,95.76,27.81,95.2Z"/><path class="b" d="M128.13,109.83l-10.21-6.69a51.45,51.45,0,0,1-6.63,8.15,52,52,0,0,1-4.23,3.77l7.62,9.53a62.63,62.63,0,0,0,5.24-4.67A63.74,63.74,0,0,0,128.13,109.83Z"/><path class="b" d="M55.91,122.65a52.69,52.69,0,0,1-6.75-3.3L43,129.89A62.09,62.09,0,0,0,51.37,134a63.55,63.55,0,0,0,10.27,3.13l2.57-11.94A50.43,50.43,0,0,1,55.91,122.65Z"/><path class="b" d="M122.19,54.8a51.3,51.3,0,0,1,3,9.62q.43,2.07.69,4.2L138,67.1q-.32-2.64-.86-5.19A63,63,0,0,0,133.42,50c-.31-.7-.63-1.39-1-2.08l-11,5.2C121.69,53.68,122,54.24,122.19,54.8Z"/><path class="b" d="M94.09,27.35a52.69,52.69,0,0,1,6.75,3.3L107,20.11A62.09,62.09,0,0,0,98.63,16a63.55,63.55,0,0,0-10.27-3.13L85.79,24.83A50.43,50.43,0,0,1,94.09,27.35Z"/><path class="c" d="M138,67.1l-12.11,1.52h0q-.26-2.13-.69-4.2a51.3,51.3,0,0,0-3-9.62c-.24-.56-.5-1.12-.77-1.68h0l11-5.2a62.64,62.64,0,0,0-4.62-8.19A63.77,63.77,0,0,0,109.7,21.78c-.89-.58-1.8-1.14-2.72-1.67l-6.14,10.54h0a51.46,51.46,0,0,0-6.75-3.31,50.43,50.43,0,0,0-8.3-2.52l2.57-11.94-.94-.2a63.8,63.8,0,0,0-25.52.14,62.89,62.89,0,0,0-22.17,9.33c-1.52,1-3,2.11-4.41,3.25l7.62,9.53A50.59,50.59,0,0,0,32,47l.07-.11L21.87,40.17l-.09.13A63.41,63.41,0,0,0,11.47,75a62.4,62.4,0,0,0,.5,7.9l12.11-1.52h0c.17,1.42.4,2.83.69,4.21a51.3,51.3,0,0,0,3,9.62c.24.56.5,1.12.77,1.68l-11,5.2A63.69,63.69,0,0,0,40.3,128.22c.89.58,1.8,1.14,2.72,1.67l6.14-10.54h0a50.84,50.84,0,0,0,15.8,6l-.75-.17-2.57,11.94.94.2A64.34,64.34,0,0,0,75,138.53a63.15,63.15,0,0,0,35.27-10.69c1.52-1,3-2.11,4.41-3.25l-7.62-9.53a52,52,0,0,0,4.23-3.77,51.45,51.45,0,0,0,6.63-8.15l10.21,6.69.09-.13A63.41,63.41,0,0,0,138.53,75,62.4,62.4,0,0,0,138,67.1Zm-17.3-15.38-.27-.53Zm-1.92-3.44c-.36-.6-.73-1.19-1.12-1.78C118.08,47.09,118.45,47.68,118.81,48.28Zm1,1.74-.51-.88ZM46.5,32.31c-.62.42-1.22.85-1.82,1.29C45.28,33.16,45.88,32.73,46.5,32.31ZM23.89,79.67l0,.24Zm-.19-3.15c0,.12,0,.25,0,.38C23.71,76.77,23.71,76.64,23.7,76.52Zm.07,1.55,0,.35Zm5.5,20.21.27.53Zm1.92,3.44c.36.6.73,1.19,1.12,1.78C31.92,102.91,31.55,102.32,31.19,101.72Zm-1-1.74.51.89Zm73.32,17.71c.63-.42,1.23-.85,1.83-1.29Q104.44,117.06,103.49,117.69Zm8.86-18.33a44.62,44.62,0,0,1-5.82,7.17,44.13,44.13,0,0,1-6.77,5.56,44.51,44.51,0,0,1-15.57,6.57,44.83,44.83,0,0,1-9.19,1,44.84,44.84,0,0,1-16.59-3.21,44.84,44.84,0,0,1-20.5-16.65A44.56,44.56,0,0,1,31.34,84.2a45,45,0,0,1-1-9.2,44.84,44.84,0,0,1,3.21-16.59,44.84,44.84,0,0,1,16.65-20.5A44.56,44.56,0,0,1,65.8,31.34a45,45,0,0,1,9.2-1,44.84,44.84,0,0,1,16.59,3.21,44.84,44.84,0,0,1,20.5,16.65,44.51,44.51,0,0,1,6.57,15.57,44.83,44.83,0,0,1,1,9.19,44.84,44.84,0,0,1-3.21,16.59A44.47,44.47,0,0,1,112.35,99.36ZM126.09,70.1v0Zm.11,1.49,0,.33Zm.08,1.52c0,.13,0,.25,0,.37C126.29,73.36,126.29,73.24,126.28,73.11Z"/><path class="b" d="M38.71,38.71a52,52,0,0,1,4.23-3.77l-7.62-9.53a61.08,61.08,0,0,0-5.24,4.67,63.74,63.74,0,0,0-8.21,10.09l10.21,6.69A51.45,51.45,0,0,1,38.71,38.71Z"/><path class="d" d="M115.13,66.55a40.64,40.64,0,0,0-2.43-7.68,41,41,0,0,0-15.31-18.2A40.88,40.88,0,0,0,83,34.78a41.06,41.06,0,0,0-16.47.09,40.66,40.66,0,0,0-14.31,6A41.88,41.88,0,0,0,46,46a41.35,41.35,0,0,0-5.34,6.6A40.88,40.88,0,0,0,34.78,67a41.06,41.06,0,0,0,.09,16.47,40.41,40.41,0,0,0,2.43,7.68,41.15,41.15,0,0,0,3.6,6.63A41.94,41.94,0,0,0,46,104a41.35,41.35,0,0,0,6.6,5.34A40.7,40.7,0,0,0,73,116a40.83,40.83,0,0,1-5.9-.73,40.14,40.14,0,0,1-7.15-2.14,39.67,39.67,0,0,1-7-3.68A40.5,40.5,0,0,1,35.26,67.56a40,40,0,0,1,2.13-7.14,40.73,40.73,0,0,1,9-13.58,40.7,40.7,0,0,1,12.7-8.61A40.47,40.47,0,0,1,75,35a40.52,40.52,0,0,1,7.92.78,41,41,0,0,1,7.15,2.14,39.67,39.67,0,0,1,7.05,3.68,40.93,40.93,0,0,1,6.52,5.28,41,41,0,0,1,8.61,12.7,39.91,39.91,0,0,1,2.4,7.59,40.43,40.43,0,0,1-5.72,30.48,41,41,0,0,1-5.29,6.52,41.42,41.42,0,0,1-6.15,5.05,40.6,40.6,0,0,1-6.55,3.56,39.91,39.91,0,0,1-7.59,2.4A40.37,40.37,0,0,1,75,116a41.26,41.26,0,0,0,8.45-.88A41.2,41.2,0,0,0,104,104a41.1,41.1,0,0,0,11.24-21,41.06,41.06,0,0,0-.09-16.47Z"/><path class="e" d="M37,50.2a45.29,45.29,0,0,0-6.48,15.93,45.36,45.36,0,0,0,.11,18.22A45,45,0,0,0,42.9,107.1,45.34,45.34,0,0,0,50.2,113a45.29,45.29,0,0,0,15.93,6.48,45.36,45.36,0,0,0,18.22-.11,45.23,45.23,0,0,0,15.86-6.64A45.68,45.68,0,0,0,113,99.8a45.29,45.29,0,0,0,6.48-15.93,45.36,45.36,0,0,0-.11-18.22,45.23,45.23,0,0,0-6.64-15.86A45.68,45.68,0,0,0,99.8,37a45.29,45.29,0,0,0-15.93-6.48,45.36,45.36,0,0,0-18.22.11,45.23,45.23,0,0,0-15.86,6.64A45.34,45.34,0,0,0,42.9,42.9,44.81,44.81,0,0,0,37,50.2ZM58.58,36.64a41.69,41.69,0,0,1,54.78,21.94A42.31,42.31,0,0,1,116.71,75a42.27,42.27,0,0,1-.8,8.16,41.72,41.72,0,0,1-6,14.63,42.1,42.1,0,0,1-5.45,6.72,42.52,42.52,0,0,1-6.34,5.2,41.84,41.84,0,0,1-14.57,6.11A41.65,41.65,0,0,1,52.21,110,41.61,41.61,0,0,1,36.64,91.42,41.69,41.69,0,0,1,58.58,36.64Z"/><path class="a" d="M109.1,52.24l3-2a44.13,44.13,0,0,0-5.56-6.77L104,46A41.39,41.39,0,0,1,109.1,52.24Z"/><path class="f" d="M112.7,58.87,116,57.45a43.64,43.64,0,0,0-3.92-7.21l-3,2A41.15,41.15,0,0,1,112.7,58.87Z"/><path class="a" d="M115.13,66.55l3.53-.74A43.76,43.76,0,0,0,116,57.45l-3.31,1.42A40.64,40.64,0,0,1,115.13,66.55Z"/><path class="f" d="M104,104l2.55,2.54a44.62,44.62,0,0,0,5.82-7.17l-3-2A40.87,40.87,0,0,1,104,104Z"/><path class="f" d="M36.94,59.75l-3.35-1.34a44.37,44.37,0,0,0-2.34,7.87l3.53.7A41,41,0,0,1,36.94,59.75Z"/><path class="a" d="M34.87,83.45l-3.53.75A43.89,43.89,0,0,0,34,92.55l3.31-1.42A40.41,40.41,0,0,1,34.87,83.45Z"/><path class="a" d="M34.78,67l-3.53-.7A43.93,43.93,0,0,0,30.38,75H34A41.62,41.62,0,0,1,34.78,67Z"/><path class="f" d="M34,75H30.38a45,45,0,0,0,1,9.2l3.53-.75A41.26,41.26,0,0,1,34,75Z"/><path class="f" d="M37.3,91.13,34,92.55a43.64,43.64,0,0,0,3.92,7.21l3-2A41.15,41.15,0,0,1,37.3,91.13Z"/><path class="f" d="M46,104l-2.54,2.54a44.62,44.62,0,0,0,7.17,5.82l2-3A41.35,41.35,0,0,1,46,104Z"/><path class="a" d="M40.9,97.76l-3,2a44.13,44.13,0,0,0,5.56,6.77L46,104A41.94,41.94,0,0,1,40.9,97.76Z"/><path class="a" d="M52.61,109.33l-2,3a44.47,44.47,0,0,0,7.77,4.06l1.34-3.35A40.7,40.7,0,0,1,52.61,109.33Z"/><path class="a" d="M40.67,52.61l-3-2a44.47,44.47,0,0,0-4.06,7.77l3.35,1.34A40.7,40.7,0,0,1,40.67,52.61Z"/><path class="f" d="M75,34V30.38a45,45,0,0,0-9.2,1l.75,3.53A41.26,41.26,0,0,1,75,34Z"/><path class="f" d="M58.87,37.3,57.45,34a43.64,43.64,0,0,0-7.21,3.92l2,3A40.43,40.43,0,0,1,58.87,37.3Z"/><path class="a" d="M66.55,34.87l-.75-3.53A43.89,43.89,0,0,0,57.45,34l1.42,3.31A40.41,40.41,0,0,1,66.55,34.87Z"/><path class="f" d="M46,46l-2.54-2.54a44.62,44.62,0,0,0-5.82,7.17l3,2A41.35,41.35,0,0,1,46,46Z"/><path class="a" d="M52.24,40.91l-2-3a44.13,44.13,0,0,0-6.77,5.56L46,46A41.88,41.88,0,0,1,52.24,40.91Z"/><path class="f" d="M115.13,66.55A41.26,41.26,0,0,1,116,75h3.61a44.83,44.83,0,0,0-1-9.19Z"/><path class="a" d="M115.22,83l3.53.7a43.93,43.93,0,0,0,.87-8.72H116A41.62,41.62,0,0,1,115.22,83Z"/><path class="f" d="M104,46l2.55-2.54a44.62,44.62,0,0,0-7.17-5.82l-2,3A40.84,40.84,0,0,1,104,46Z"/><path class="f" d="M113.06,90.25l3.35,1.34a44.37,44.37,0,0,0,2.34-7.87l-3.53-.7A41,41,0,0,1,113.06,90.25Z"/><path class="f" d="M59.75,113.06l-1.34,3.35a44.37,44.37,0,0,0,7.87,2.34l.7-3.53A41,41,0,0,1,59.75,113.06Z"/><path class="a" d="M97.39,40.67l2-3a44.47,44.47,0,0,0-7.77-4.06l-1.34,3.35A40.7,40.7,0,0,1,97.39,40.67Z"/><path class="f" d="M90.25,36.94l1.34-3.35a44.37,44.37,0,0,0-7.87-2.34L83,34.78A41,41,0,0,1,90.25,36.94Z"/><path class="a" d="M109.33,97.39l3,2a44.47,44.47,0,0,0,4.06-7.77l-3.35-1.34A40.7,40.7,0,0,1,109.33,97.39Z"/><path class="f" d="M75,116v3.61a44.83,44.83,0,0,0,9.19-1l-.74-3.53A41.26,41.26,0,0,1,75,116Z"/><path class="a" d="M83,34.78l.7-3.53A43.93,43.93,0,0,0,75,30.38V34A41.62,41.62,0,0,1,83,34.78Z"/><path class="a" d="M67,115.22l-.7,3.53a43.93,43.93,0,0,0,8.72.87V116A41.62,41.62,0,0,1,67,115.22Z"/><path class="a" d="M83.45,115.13l.74,3.53A43.76,43.76,0,0,0,92.55,116l-1.42-3.31A40.41,40.41,0,0,1,83.45,115.13Z"/><path class="f" d="M91.13,112.7,92.55,116a43.64,43.64,0,0,0,7.21-3.92l-2-3A40.43,40.43,0,0,1,91.13,112.7Z"/><path class="a" d="M97.76,109.09l2,3a44.13,44.13,0,0,0,6.77-5.56L104,104A40.7,40.7,0,0,1,97.76,109.09Z"/><path class="a" d="M24.32,83.08l.06.41Z"/><path class="a" d="M111.29,111.29a51.45,51.45,0,0,0,6.63-8.15A51.45,51.45,0,0,1,111.29,111.29Z"/><path class="a" d="M60,124.09c1.37.42,2.77.77,4.18,1.08C62.79,124.86,61.39,124.5,60,124.09Z"/><path class="a" d="M58,123.42c.55.2,1.11.38,1.67.55C59.09,123.8,58.53,123.62,58,123.42Z"/><path class="a" d="M125.62,66.51l0,.2Z"/><path class="g" d="M35.19,42.62a49.9,49.9,0,0,0-3.1,4.23A49.9,49.9,0,0,1,35.19,42.62Z"/><path class="g" d="M36.9,40.62c-.54.6-1.06,1.21-1.57,1.84C35.84,41.83,36.36,41.22,36.9,40.62Z"/><path class="h" d="M18.37,101.69c-.32-.68-.64-1.36-.94-2a62.89,62.89,0,0,1-3.7-11.74c-.35-1.68-.63-3.39-.85-5.11L12,82.9q.31,2.64.86,5.19A63,63,0,0,0,16.58,100c.31.7.63,1.39,1,2.08Z"/><path class="i" d="M119.27,119.27a61.07,61.07,0,0,1-5.17,4.6l.58.72a62.63,62.63,0,0,0,5.24-4.67,63.74,63.74,0,0,0,8.21-10.09l-.77-.51A63.51,63.51,0,0,1,119.27,119.27Z"/><path class="j" d="M51.71,133.12a61.47,61.47,0,0,1-8.23-4l-.46.8A62.09,62.09,0,0,0,51.37,134a63.55,63.55,0,0,0,10.27,3.13l.19-.9A61.73,61.73,0,0,1,51.71,133.12Z"/><path class="k" d="M132.57,50.36a62.16,62.16,0,0,1,3.7,11.74c.35,1.68.63,3.39.85,5.11l.91-.11q-.32-2.64-.86-5.19A63,63,0,0,0,133.42,50c-.31-.7-.63-1.39-1-2.08l-.83.39C132,49,132.27,49.67,132.57,50.36Z"/><path class="l" d="M98.28,16.87a62.27,62.27,0,0,1,8.24,4l.46-.8A62.09,62.09,0,0,0,98.63,16a63.55,63.55,0,0,0-10.27-3.13l-.19.9A62.57,62.57,0,0,1,98.28,16.87Z"/><path class="m" d="M12.88,82.79A64.53,64.53,0,0,1,12.4,75a62.49,62.49,0,0,1,1.2-12.24,62.32,62.32,0,0,1,9-22l.08-.12-.77-.51-.09.13A63.41,63.41,0,0,0,11.47,75a62.4,62.4,0,0,0,.5,7.9Z"/><path class="n" d="M43.48,129.09c-.91-.52-1.8-1.08-2.68-1.65a62.57,62.57,0,0,1-22.43-25.75l-.84.39A63.69,63.69,0,0,0,40.3,128.22c.89.58,1.8,1.14,2.72,1.67Z"/><path class="o" d="M114.1,123.87c-1.4,1.12-2.84,2.2-4.34,3.2a62.63,62.63,0,0,1-10.13,5.5,61.83,61.83,0,0,1-11.73,3.7,63.13,63.13,0,0,1-25.14.13l-.93-.19-.19.9.94.2A64.34,64.34,0,0,0,75,138.53a63.15,63.15,0,0,0,35.27-10.69c1.52-1,3-2.11,4.41-3.25Z"/><path class="p" d="M138,67.1l-.91.11h0A64.53,64.53,0,0,1,137.6,75a62.49,62.49,0,0,1-1.2,12.24,62.32,62.32,0,0,1-9,22l-.08.12.77.51.09-.13A63.41,63.41,0,0,0,138.53,75,62.4,62.4,0,0,0,138,67.1Z"/><path class="q" d="M106.52,20.91c.9.52,1.8,1.08,2.67,1.65a62.44,62.44,0,0,1,10.08,8.17,62.56,62.56,0,0,1,12.36,17.58l.83-.39a62.64,62.64,0,0,0-4.62-8.19A63.77,63.77,0,0,0,109.7,21.78c-.89-.58-1.8-1.14-2.72-1.67Z"/><path class="r" d="M35.9,26.13c1.4-1.12,2.84-2.2,4.34-3.2a63,63,0,0,1,10.12-5.5,62.16,62.16,0,0,1,11.74-3.7,63.13,63.13,0,0,1,25.14-.13l.93.19.19-.9-.94-.2a63.8,63.8,0,0,0-25.52.14,62.89,62.89,0,0,0-22.17,9.33c-1.52,1-3,2.11-4.41,3.25Z"/><path class="s" d="M30.73,30.73a61.07,61.07,0,0,1,5.17-4.6l-.58-.72a61.08,61.08,0,0,0-5.24,4.67,63.74,63.74,0,0,0-8.21,10.09l.77.51A63.51,63.51,0,0,1,30.73,30.73Z"/><path class="g" d="M85.91,128.54a2.59,2.59,0,1,1,2.59,2.59A2.59,2.59,0,0,1,85.91,128.54Z"/><path class="g" d="M59.65,21.46a2.59,2.59,0,1,1,2.59,2.59A2.59,2.59,0,0,1,59.65,21.46Z"/><path class="g" d="M18.22,65.29a2.59,2.59,0,1,1,2.59,2.59A2.59,2.59,0,0,1,18.22,65.29Z"/><path class="g" d="M32.65,113.19a2.59,2.59,0,1,1,2.59,2.59A2.59,2.59,0,0,1,32.65,113.19Z"/><path class="g" d="M125.86,87.67a2.59,2.59,0,1,1,2.59,2.59A2.59,2.59,0,0,1,125.86,87.67Z"/><path class="g" d="M113.1,38.29a2.59,2.59,0,1,1,2.59,2.59A2.59,2.59,0,0,1,113.1,38.29Z"/><path class="t" d="M109.35,97.4A40.92,40.92,0,0,0,115.2,83a40.84,40.84,0,0,0,.79-8,41.13,41.13,0,0,0-3.3-16.13,41,41,0,0,0-3.58-6.64c-.33-.49-.68-1-1-1.46l-.33-.44c-.26-.35-.53-.69-.8-1-.12-.16-.24-.31-.37-.46-.34-.42-.7-.83-1.06-1.24l-.13-.14c-.45-.5-.91-1-1.39-1.47s-1-1-1.55-1.47h0l-.13-.11c-.44-.39-.88-.77-1.33-1.14l-.49-.39c-.35-.28-.71-.56-1.08-.83L99,41.72c-.51-.37-1-.73-1.55-1.07A41.15,41.15,0,0,0,75,34a41.13,41.13,0,0,0-16.13,3.3A40.81,40.81,0,0,0,40.65,52.6,40.86,40.86,0,0,0,34.8,67,40.66,40.66,0,0,0,34,75a41.52,41.52,0,0,0,.88,8.45,40.5,40.5,0,0,0,2.42,7.68,41.4,41.4,0,0,0,3.58,6.64c.33.49.68,1,1,1.46l.33.44c.26.35.53.69.8,1l.37.45c.34.42.7.84,1.06,1.24s1,1.08,1.52,1.61a41.16,41.16,0,0,0,13.75,9.07A41.47,41.47,0,0,0,75,116a41.22,41.22,0,0,0,22.77-6.88A41.06,41.06,0,0,0,104,104,40.59,40.59,0,0,0,109.35,97.4Zm-1-46.2-.21-.3Zm-.78-1.07c-.19-.24-.38-.49-.58-.73C107.22,49.64,107.41,49.89,107.6,50.13Zm-1.06-1.33c-.33-.4-.66-.79-1-1.18C105.88,48,106.21,48.4,106.54,48.8Zm-4.23-4.39c-.42-.37-.85-.74-1.27-1.09C101.46,43.67,101.89,44,102.31,44.41Zm-1.91-1.59-.77-.6Zm-1.59-1.2-.31-.21ZM41.61,98.79l.22.31Zm.79,1.08c.19.24.38.49.58.73C42.78,100.36,42.59,100.11,42.4,99.87Zm1.06,1.33c.33.4.67.79,1,1.18C44.13,102,43.79,101.6,43.46,101.2Z"/><path class="c" d="M114.27,66.73a40.22,40.22,0,0,0-24.35-29,39.5,39.5,0,0,0-7.07-2.12c-.57-.11-1.15-.21-1.73-.3l-.53-.07-1.26-.16-.57-.06c-.53,0-1.06-.09-1.6-.12H77c-.66,0-1.32-.05-2-.05s-1.4,0-2.09.05h-.17c-.57,0-1.14.08-1.71.14l-.6.07-1.32.17-.57.09c-.61.1-1.21.2-1.81.33A40.3,40.3,0,0,0,35.64,67.15a40.29,40.29,0,0,0,.09,16.12,39.9,39.9,0,0,0,2.38,7.52,40.05,40.05,0,0,0,8.53,12.57,39.62,39.62,0,0,0,6.45,5.24,40.3,40.3,0,0,0,7,3.64,39.26,39.26,0,0,0,7.07,2.12c.57.11,1.15.21,1.73.3l.53.07,1.26.16.57.06c.53,0,1.06.09,1.6.12.72,0,1.43.06,2.16.06a40,40,0,0,0,15.79-3.24,40.38,40.38,0,0,0,17.81-15,39.62,39.62,0,0,0,3.64-7,40.08,40.08,0,0,0,2.12-7.07,40.29,40.29,0,0,0-.09-16.12ZM81.63,35.43l-.36-.06Zm-1.28-.19-.91-.12ZM78.7,35l-1.52-.11Zm-8.39.11-1,.13Zm-1.93.27-.37.07Zm0,79.15.37.06Zm1.29.19.91.12Zm1.65.2,1.52.11Z"/></svg>