<svg xmlns="http://www.w3.org/2000/svg" xmlns:xlink="http://www.w3.org/1999/xlink" viewBox="0 0 660 379.33"><defs><style>.a{opacity:0.19;filter:url(#a);}.b{fill:#fff;}.c{fill:url(#b);}.d{fill:#101010;opacity:0.6;}.e{fill:url(#c);}.f{opacity:0.43;fill:url(#d);}.g{fill:none;stroke:#177a3c;stroke-miterlimit:10;opacity:0.63;}</style><filter id="a" x="-15%" y="-15%" width="140%" height="130%" name="AI_Shadow_2"><feGaussianBlur result="blur" stdDeviation="6" in="SourceAlpha"/><feOffset result="offsetBlurredAlpha" dx="8" dy="8" in="blur"/><feMerge><feMergeNode in="offsetBlurredAlpha"/><feMergeNode in="SourceGraphic"/></feMerge></filter><radialGradient id="b" cx="329.39" cy="189.67" r="230.84" gradientTransform="matrix(0.88, 0.46, -0.59, 1.14, 152.16, -178.2)" gradientUnits="userSpaceOnUse"><stop offset="0" stop-color="#282828"/><stop offset="0.52" stop-color="#282828"/><stop offset="1" stop-color="#616161"/></radialGradient><radialGradient id="c" cx="360" cy="165" fx="465.9001998258878" fy="218.1931235340549" r="338.42" gradientTransform="matrix(1, 0, 0, 0.6, 0.12, 66.13)" gradientUnits="userSpaceOnUse"><stop offset="0.02" stop-color="#1b4c2b"/><stop offset="0.06" stop-color="#1f502b"/><stop offset="0.23" stop-color="#2a5d2b"/><stop offset="0.4" stop-color="#2e612b"/><stop offset="0.83" stop-color="#08502b"/><stop offset="0.92" stop-color="#004c2b"/><stop offset="0.97" stop-color="#013f2b"/><stop offset="1" stop-color="#02362b"/></radialGradient><radialGradient id="d" cx="263.67" cy="195.67" fx="369.5668664925557" fy="248.85979020072097" r="338.42" gradientTransform="translate(551.81 184.95) rotate(153.99) scale(1 0.6)" xlink:href="#c"/></defs><g class="a"><path class="b" d="M181.68,333.62c-37.63,0-73.13-15-100-42.31A145,145,0,0,1,81.72,88c26.83-27.28,62.33-42.31,100-42.31H478.32c37.63,0,73.13,15,100,42.31a145,145,0,0,1,0,203.29c-26.83,27.29-62.33,42.31-100,42.31Z"/></g><path class="c" d="M181.68,333.62c-37.63,0-73.13-15-100-42.31A145,145,0,0,1,81.72,88c26.83-27.28,62.33-42.31,100-42.31H478.32c37.63,0,73.13,15,100,42.31a145,145,0,0,1,0,203.29c-26.83,27.29-62.33,42.31-100,42.31Z"/><path class="d" d="M181.68,333.62c-37.63,0-73.13-15-100-42.31A145,145,0,0,1,81.72,88c26.83-27.28,62.33-42.31,100-42.31H478.32c37.63,0,73.13,15,100,42.31a145,145,0,0,1,0,203.29c-26.83,27.29-62.33,42.31-100,42.31Z"/><path class="e" d="M186.09,326.17a136.81,136.81,0,0,1-97-40.12,135.25,135.25,0,0,1,0-192.77,136.8,136.8,0,0,1,97-40.11H473.91a136.8,136.8,0,0,1,97,40.11,135.25,135.25,0,0,1,0,192.77,136.81,136.81,0,0,1-97,40.12Z"/><path class="f" d="M186.42,326.17a136.84,136.84,0,0,1-97-40.12,135.27,135.27,0,0,1,0-192.77,136.83,136.83,0,0,1,97-40.11H474.24a136.8,136.8,0,0,1,97,40.11,135.25,135.25,0,0,1,0,192.77,136.81,136.81,0,0,1-97,40.12Z"/><path class="g" d="M208.48,291c-30.64,0-59.54-10.58-81.39-29.8s-33.87-44.64-33.87-71.59,12-52.39,33.87-71.6,50.75-29.8,81.39-29.8H450c30.64,0,59.54,10.58,81.38,29.8s33.87,44.64,33.87,71.6-12,52.38-33.87,71.59S480.61,291,450,291Z"/></svg>