<svg xmlns="http://www.w3.org/2000/svg" xmlns:xlink="http://www.w3.org/1999/xlink" viewBox="0 0 615 330"><defs><style>.a{opacity:0.19;filter:url(#a);}.b{fill:#fff;}.c{fill:url(#b);}.d{fill:#101010;opacity:0.6;}.e{fill:url(#c);}.f{opacity:0.43;fill:url(#d);}.g{fill:none;stroke:#177a3c;stroke-miterlimit:10;opacity:0.63;}</style><filter id="a" x="-15%" y="-15%" width="140%" height="130%" name="AI_Shadow_2"><feGaussianBlur result="blur" stdDeviation="6" in="SourceAlpha"/><feOffset result="offsetBlurredAlpha" dx="8" dy="8" in="blur"/><feMerge><feMergeNode in="offsetBlurredAlpha"/><feMergeNode in="SourceGraphic"/></feMerge></filter><radialGradient id="b" cx="306.89" cy="165" r="230.84" gradientTransform="matrix(0.88, 0.46, -0.59, 1.14, 134.94, -164.42)" gradientUnits="userSpaceOnUse"><stop offset="0" stop-color="#282828"/><stop offset="0.52" stop-color="#282828"/><stop offset="1" stop-color="#616161"/></radialGradient><radialGradient id="c" cx="337.5" cy="140.33" fx="443.4001998258878" fy="193.52645686738703" r="338.42" gradientTransform="matrix(1, 0, 0, 0.6, 0.11, 56.2)" gradientUnits="userSpaceOnUse"><stop offset="0.02" stop-color="#1b4c2b"/><stop offset="0.06" stop-color="#1f502b"/><stop offset="0.23" stop-color="#2a5d2b"/><stop offset="0.4" stop-color="#2e612b"/><stop offset="0.83" stop-color="#08502b"/><stop offset="0.92" stop-color="#004c2b"/><stop offset="0.97" stop-color="#013f2b"/><stop offset="1" stop-color="#02362b"/></radialGradient><radialGradient id="d" cx="241.17" cy="171" fx="347.0668664925557" fy="224.1931235340531" r="338.42" gradientTransform="translate(502.64 156.93) rotate(153.99) scale(1 0.6)" xlink:href="#c"/></defs><g class="a"><path class="b" d="M159.18,309c-37.63,0-73.13-15-100-42.3a145,145,0,0,1,0-203.3c26.83-27.28,62.33-42.3,100-42.3H455.82c37.63,0,73.13,15,100,42.3a145,145,0,0,1,0,203.3C529,293.93,493.45,309,455.82,309Z"/></g><path class="c" d="M159.18,309c-37.63,0-73.13-15-100-42.3a145,145,0,0,1,0-203.3c26.83-27.28,62.33-42.3,100-42.3H455.82c37.63,0,73.13,15,100,42.3a145,145,0,0,1,0,203.3C529,293.93,493.45,309,455.82,309Z"/><path class="d" d="M159.18,309c-37.63,0-73.13-15-100-42.3a145,145,0,0,1,0-203.3c26.83-27.28,62.33-42.3,100-42.3H455.82c37.63,0,73.13,15,100,42.3a145,145,0,0,1,0,203.3C529,293.93,493.45,309,455.82,309Z"/><path class="e" d="M163.59,301.5a136.84,136.84,0,0,1-97-40.11,135.26,135.26,0,0,1,0-192.78,136.84,136.84,0,0,1,97-40.11H451.41a136.84,136.84,0,0,1,97,40.11,135.26,135.26,0,0,1,0,192.78,136.84,136.84,0,0,1-97,40.11Z"/><path class="f" d="M163.92,301.5a136.87,136.87,0,0,1-97-40.11,135.28,135.28,0,0,1,0-192.78,136.87,136.87,0,0,1,97-40.11H451.74a136.84,136.84,0,0,1,97,40.11,135.26,135.26,0,0,1,0,192.78,136.84,136.84,0,0,1-97,40.11Z"/><path class="g" d="M186,266.29c-30.64,0-59.54-10.59-81.39-29.8s-33.87-44.65-33.87-71.6,12-52.38,33.87-71.6,50.75-29.8,81.39-29.8H427.47c30.64,0,59.54,10.58,81.38,29.8s33.87,44.64,33.87,71.6-12,52.38-33.87,71.6-50.74,29.8-81.38,29.8Z"/></svg>