<svg xmlns="http://www.w3.org/2000/svg" xmlns:xlink="http://www.w3.org/1999/xlink" viewBox="0 0 150 150"><defs><style>.a{fill:#fff;}.b{fill:#333235;}.c{fill:#f0edee;}.d{fill:url(#a);}.e{fill:#262326;}.f{fill:#e3dedd;}.g{fill:#f8f7f7;}.h{fill:url(#b);}.i{fill:url(#c);}.j{fill:url(#d);}.k{fill:url(#e);}.l{fill:url(#f);}.m{fill:url(#g);}.n{fill:url(#h);}.o{fill:url(#i);}.p{fill:url(#j);}.q{fill:url(#k);}.r{fill:url(#l);}.s{fill:url(#m);}.t{fill:url(#n);}.u{fill:url(#o);}.v{fill:url(#p);}.w{fill:url(#q);}.x{fill:url(#r);}.y{fill:url(#s);}.z{fill:url(#t);}.aa{fill:url(#u);}.ab{fill:url(#v);}.ac{fill:url(#w);}.ad{fill:url(#x);}.ae{fill:url(#y);}.af{fill:url(#z);}.ag{fill:url(#aa);}.ah{fill:url(#ab);}.ai{fill:url(#ac);}.aj{fill:url(#ad);}</style><linearGradient id="a" x1="-464.5" y1="383.17" x2="-463.5" y2="383.17" gradientTransform="matrix(-90.76, 0, 0, 90.76, -42038.71, -34702.97)" gradientUnits="userSpaceOnUse"><stop offset="0" stop-color="#fff"/><stop offset="0.13" stop-color="#fbfbfb"/><stop offset="0.26" stop-color="#efefef"/><stop offset="0.39" stop-color="#dbdbdb"/><stop offset="0.53" stop-color="#bfbebf"/><stop offset="0.66" stop-color="#9b9a9b"/><stop offset="0.79" stop-color="#6f6d6f"/><stop offset="0.92" stop-color="#3b393c"/><stop offset="1" stop-color="#1a171b"/></linearGradient><linearGradient id="b" x1="-464.1" y1="429" x2="-463.1" y2="429" gradientTransform="matrix(3.74, -1.11, -1.11, -3.74, 2225.19, 1184.34)" gradientUnits="userSpaceOnUse"><stop offset="0" stop-color="#fff"/><stop offset="0.11" stop-color="#fdfdfd"/><stop offset="1" stop-color="#f0f0f0"/></linearGradient><linearGradient id="c" x1="-464.1" y1="429" x2="-463.1" y2="429" gradientTransform="matrix(3.74, -1.11, -1.11, -3.74, 2225.19, 1184.34)" gradientUnits="userSpaceOnUse"><stop offset="0" stop-color="#515153"/><stop offset="0.16" stop-color="#4e4e50"/><stop offset="1" stop-color="#424144"/></linearGradient><linearGradient id="d" x1="-464.1" y1="429.01" x2="-463.1" y2="429.01" gradientTransform="matrix(3.74, -1.11, -1.11, -3.74, 2225.19, 1184.34)" gradientUnits="userSpaceOnUse"><stop offset="0" stop-color="#f2f0f1"/><stop offset="0.16" stop-color="#efedee"/><stop offset="1" stop-color="#e3e0e2"/></linearGradient><linearGradient id="e" x1="-445.43" y1="372.55" x2="-444.43" y2="372.55" gradientTransform="matrix(-5.39, -5.39, -5.39, 5.39, -261.35, -4299.38)" xlink:href="#b"/><linearGradient id="f" x1="-445.43" y1="373.86" x2="-444.43" y2="373.86" gradientTransform="matrix(-5.39, -5.39, -5.39, 5.39, -261.35, -4299.38)" xlink:href="#c"/><linearGradient id="g" x1="-445.43" y1="373.86" x2="-444.43" y2="373.86" gradientTransform="matrix(-5.39, -5.39, -5.39, 5.39, -261.35, -4299.38)" xlink:href="#d"/><linearGradient id="h" x1="-430.19" y1="408.23" x2="-429.19" y2="408.23" gradientTransform="matrix(1.43, -3.7, -3.7, -1.43, 2188.1, -870.27)" xlink:href="#b"/><linearGradient id="i" x1="-430.19" y1="410.72" x2="-429.19" y2="410.72" gradientTransform="matrix(1.43, -3.7, -3.7, -1.43, 2188.1, -870.27)" xlink:href="#c"/><linearGradient id="j" x1="-463.99" y1="361.68" x2="-462.99" y2="361.68" gradientTransform="matrix(-6.76, 1.56, 1.56, 6.76, -3558.07, -1654.12)" xlink:href="#b"/><linearGradient id="k" x1="-463.99" y1="360.25" x2="-462.99" y2="360.25" gradientTransform="matrix(-6.76, 1.56, 1.56, 6.76, -3558.07, -1654.12)" xlink:href="#c"/><linearGradient id="l" x1="-463.99" y1="361.68" x2="-462.99" y2="361.68" gradientTransform="matrix(-6.9, 0.7, 0.7, 6.9, -3314.18, -2102.13)" xlink:href="#d"/><linearGradient id="m" x1="-484.68" y1="371.19" x2="-483.68" y2="371.19" gradientTransform="matrix(-2.64, 6.38, 6.38, 2.64, -3536.31, 2129.32)" xlink:href="#b"/><linearGradient id="n" x1="-484.68" y1="369.75" x2="-483.68" y2="369.75" gradientTransform="matrix(-2.64, 6.38, 6.38, 2.64, -3536.31, 2129.32)" xlink:href="#c"/><linearGradient id="o" x1="-484.68" y1="371.19" x2="-483.68" y2="371.19" gradientTransform="matrix(-2.64, 6.38, 6.38, 2.64, -3536.31, 2129.32)" xlink:href="#d"/><linearGradient id="p" x1="-472.71" y1="391.42" x2="-471.71" y2="391.42" gradientTransform="matrix(14.05, 9.8, 9.8, -14.05, 2811.1, 10186.96)" gradientUnits="userSpaceOnUse"><stop offset="0" stop-color="#fff"/><stop offset="1" stop-color="#f8f8f8"/></linearGradient><linearGradient id="q" x1="-472.71" y1="391.42" x2="-471.71" y2="391.42" gradientTransform="matrix(14.05, 9.8, 9.8, -14.05, 2811.1, 10186.96)" gradientUnits="userSpaceOnUse"><stop offset="0" stop-color="#f2f0f1"/><stop offset="1" stop-color="#ebe9ea"/></linearGradient><linearGradient id="r" x1="-472.71" y1="392.61" x2="-471.71" y2="392.61" gradientTransform="matrix(14.05, 9.8, 9.8, -14.05, 2811.1, 10186.96)" gradientUnits="userSpaceOnUse"><stop offset="0" stop-color="#515153"/><stop offset="1" stop-color="#4a494c"/></linearGradient><linearGradient id="s" x1="-464.89" y1="393.84" x2="-463.89" y2="393.84" gradientTransform="matrix(18.68, -5.36, -5.36, -18.68, 10814.42, 4982.79)" xlink:href="#b"/><linearGradient id="t" x1="-464.89" y1="392.98" x2="-463.89" y2="392.98" gradientTransform="matrix(18.68, -5.36, -5.36, -18.68, 10814.42, 4982.79)" xlink:href="#c"/><linearGradient id="u" x1="-464.89" y1="393.84" x2="-463.89" y2="393.84" gradientTransform="matrix(18.68, -5.36, -5.36, -18.68, 10814.42, 4982.79)" xlink:href="#d"/><linearGradient id="v" x1="-446.42" y1="386.6" x2="-445.42" y2="386.6" gradientTransform="matrix(-1.66, -9.06, -9.06, 1.66, 2850.02, -4548.61)" gradientUnits="userSpaceOnUse"><stop offset="0" stop-color="#bbbdbe"/><stop offset="1" stop-color="#dfe0e1"/></linearGradient><linearGradient id="w" x1="-456.55" y1="374.81" x2="-455.55" y2="374.81" gradientTransform="matrix(-11.84, -5.36, -5.36, 11.84, -3252.67, -6792.75)" gradientUnits="userSpaceOnUse"><stop offset="0" stop-color="#c2c3c4"/><stop offset="0.18" stop-color="#cbcccd"/><stop offset="0.66" stop-color="#dededf"/><stop offset="1" stop-color="#e5e5e6"/></linearGradient><linearGradient id="x" x1="-466.37" y1="379.78" x2="-465.37" y2="379.78" gradientTransform="matrix(-27.56, 15.91, 15.91, 27.56, -18755.01, -3023.36)" gradientUnits="userSpaceOnUse"><stop offset="0" stop-color="#8d8e90"/><stop offset="0.08" stop-color="#9b9c9d"/><stop offset="0.37" stop-color="#c6c6c7"/><stop offset="0.63" stop-color="#e5e5e6"/><stop offset="0.85" stop-color="#f8f8f8"/><stop offset="1" stop-color="#fff"/></linearGradient><linearGradient id="y" x1="-421.37" y1="384.01" x2="-420.37" y2="384.01" gradientTransform="matrix(-1.13, -3.77, -3.77, 1.13, 1033.87, -2008.89)" xlink:href="#b"/><linearGradient id="z" x1="-421.37" y1="377.16" x2="-420.37" y2="377.16" gradientTransform="matrix(3.45, -1.89, -1.89, -3.45, 2264.01, 513.04)" xlink:href="#c"/><linearGradient id="aa" x1="-421.37" y1="384.01" x2="-420.37" y2="384.01" gradientTransform="matrix(-1.13, -3.77, -3.77, 1.13, 1033.87, -2008.89)" xlink:href="#d"/><linearGradient id="ab" x1="-421.37" y1="390.88" x2="-420.37" y2="390.88" gradientTransform="matrix(-1.13, -3.77, -3.77, 1.13, 1033.87, -2008.89)" xlink:href="#c"/><linearGradient id="ac" x1="-482.25" y1="395.72" x2="-481.26" y2="395.72" gradientTransform="matrix(6.2, 5.75, 5.75, -6.2, 741.41, 5254.72)" xlink:href="#c"/><linearGradient id="ad" x1="-466.82" y1="386.03" x2="-465.82" y2="386.03" gradientTransform="matrix(58, 58, 58, -58, 4731.56, 49508.79)" xlink:href="#a"/></defs><path class="a" d="M31,75.65a44.57,44.57,0,1,1,44.57,44.57A44.56,44.56,0,0,1,31,75.65Z"/><path class="b" d="M27.81,95.2a51.3,51.3,0,0,1-3-9.62q-.43-2.07-.69-4.2L12,82.9q.31,2.64.86,5.2A63.12,63.12,0,0,0,16.58,100c.31.7.63,1.39,1,2.08l11-5.2c-.27-.56-.53-1.12-.77-1.68Z"/><path class="b" d="M128.13,109.83l-10.21-6.69a51.45,51.45,0,0,1-6.63,8.15,52,52,0,0,1-4.23,3.77l7.62,9.53a61.08,61.08,0,0,0,5.24-4.67,63.74,63.74,0,0,0,8.21-10.09Z"/><path class="b" d="M55.91,122.65a52.69,52.69,0,0,1-6.75-3.3L43,129.89A62.09,62.09,0,0,0,51.37,134a63.55,63.55,0,0,0,10.27,3.13l2.57-11.94a50.43,50.43,0,0,1-8.3-2.52Z"/><path class="b" d="M122.19,54.8a51.53,51.53,0,0,1,3,9.62q.43,2.07.69,4.2L138,67.1q-.32-2.64-.86-5.19A62.77,62.77,0,0,0,133.42,50c-.31-.7-.63-1.39-.95-2.08l-11,5.2c.27.56.53,1.12.77,1.68Z"/><path class="b" d="M94.09,27.35a52.69,52.69,0,0,1,6.75,3.3L107,20.11a62.81,62.81,0,0,0-18.62-7.22L85.79,24.83a50.43,50.43,0,0,1,8.3,2.52Z"/><path class="c" d="M138,67.1l-12.1,1.52h0c-.18-1.42-.41-2.82-.7-4.2a51.17,51.17,0,0,0-3-9.61c-.25-.57-.51-1.13-.77-1.69h0l11-5.2a62.64,62.64,0,0,0-4.62-8.19,63.5,63.5,0,0,0-18.13-17.93c-.88-.58-1.79-1.14-2.71-1.67l-6.14,10.54h0a50,50,0,0,0-15-5.82l2.57-11.94-.94-.19A63.39,63.39,0,0,0,75,11.52a64.16,64.16,0,0,0-13.09,1.35A63.43,63.43,0,0,0,39.75,22.2c-1.52,1-3,2.11-4.4,3.24L43,35a48.85,48.85,0,0,0-4.23,3.77A51.2,51.2,0,0,0,32,47l.07-.11L21.91,40.2l-.09.13a63.05,63.05,0,0,0-5.76,11.06,62.08,62.08,0,0,0-3.32,11.2A63.39,63.39,0,0,0,11.52,75,64.32,64.32,0,0,0,12,82.9l12.1-1.52h0c.18,1.42.41,2.82.7,4.2a51.17,51.17,0,0,0,3,9.61c.25.57.51,1.13.77,1.68l-11,5.2a62.64,62.64,0,0,0,4.62,8.19,63.5,63.5,0,0,0,18.13,17.93c.88.58,1.79,1.14,2.71,1.67l6.14-10.54h0a50.59,50.59,0,0,0,15.79,6l-.75-.17-2.57,11.94.94.19a63.4,63.4,0,0,0,47.66-9.46c1.52-1,3-2.11,4.4-3.24L107,115a48.85,48.85,0,0,0,4.23-3.77,51,51,0,0,0,6.63-8.15l10.2,6.69.09-.12a63.5,63.5,0,0,0,5.76-11.07,62.08,62.08,0,0,0,3.32-11.2A63.39,63.39,0,0,0,138.48,75a64.45,64.45,0,0,0-.49-7.9ZM120.7,51.73l-.27-.52.27.52Zm-1.92-3.43c-.36-.6-.74-1.19-1.12-1.78.38.59.76,1.18,1.12,1.78Zm1,1.74c-.16-.3-.33-.59-.5-.88.17.29.34.58.5.88ZM46.52,32.35c-.61.41-1.22.84-1.82,1.28.6-.44,1.21-.87,1.82-1.28ZM23.93,79.67l0,.23,0-.23Zm-.19-3.15c0,.12,0,.25,0,.37,0-.12,0-.25,0-.37Zm.07,1.55c0,.12,0,.23,0,.35,0-.12,0-.23,0-.35Zm5.49,20.2c.09.17.18.35.28.52-.1-.17-.19-.35-.28-.52Zm1.92,3.43c.36.6.74,1.19,1.12,1.77-.38-.58-.76-1.17-1.12-1.77Zm-1-1.74.51.89L30.2,100Zm73.27,17.7q.93-.63,1.83-1.29-.9.66-1.83,1.29Zm8.86-18.32a45.16,45.16,0,0,1-5.82,7.17,44.65,44.65,0,0,1-22.32,12.12,44.61,44.61,0,0,1-40.7-12.12,44.66,44.66,0,0,1-9.47-14,43.67,43.67,0,0,1-2.65-8.35,44.61,44.61,0,0,1,12.12-40.7,44.66,44.66,0,0,1,14-9.47,43.67,43.67,0,0,1,8.35-2.65,44.79,44.79,0,0,1,17.91-.09,44.27,44.27,0,0,1,7.86,2.34,44.86,44.86,0,0,1,14.93,9.87,44.65,44.65,0,0,1,12.12,22.32,44.44,44.44,0,0,1-6.3,33.53ZM126.05,70.1l0,.22,0-.22Zm.12,1.49c0,.11,0,.22,0,.34,0-.12,0-.23,0-.34Zm.08,1.52c0,.13,0,.25,0,.37,0-.12,0-.24,0-.37Z"/><path class="b" d="M38.71,38.71a52,52,0,0,1,4.23-3.77l-7.62-9.53a62.82,62.82,0,0,0-5.24,4.67,63.74,63.74,0,0,0-8.21,10.09l10.21,6.69a51.45,51.45,0,0,1,6.63-8.15Z"/><path class="d" d="M58.58,36.64A42.31,42.31,0,0,1,75,33.29a42.27,42.27,0,0,1,8.16.8A41.72,41.72,0,0,1,97.79,40a41.54,41.54,0,0,1,15.57,18.55,41.11,41.11,0,0,1,2.45,7.81,41.59,41.59,0,0,1,.9,8.6,42.27,42.27,0,0,1-.8,8.16,41.72,41.72,0,0,1-6,14.63,41.54,41.54,0,0,1-18.55,15.57,41.11,41.11,0,0,1-7.81,2.45,41.59,41.59,0,0,1-8.6.9A41.51,41.51,0,0,1,52.21,110a41.66,41.66,0,0,1-6.72-5.45,42.52,42.52,0,0,1-5.2-6.34,42,42,0,0,1-3.65-6.75A42.31,42.31,0,0,1,33.29,75a42.27,42.27,0,0,1,.8-8.16,41.09,41.09,0,0,1,2.18-7.36A41.57,41.57,0,0,1,40,52.2a42,42,0,0,1,5.45-6.71,42.52,42.52,0,0,1,6.34-5.2A42,42,0,0,1,58.58,36.64ZM37,50.2a44.46,44.46,0,0,0-4.11,7.92A45.42,45.42,0,0,0,30.6,84.35a45.23,45.23,0,0,0,6.64,15.86,45.34,45.34,0,0,0,5.66,6.89,45.22,45.22,0,0,0,23.23,12.41,45.36,45.36,0,0,0,18.22-.11,45.23,45.23,0,0,0,15.86-6.64A45.68,45.68,0,0,0,113,99.8a45.29,45.29,0,0,0,6.48-15.93,45.36,45.36,0,0,0-.11-18.22,45.23,45.23,0,0,0-6.64-15.86,45.34,45.34,0,0,0-5.66-6.89A45.22,45.22,0,0,0,83.87,30.49a45.36,45.36,0,0,0-18.22.11A45.36,45.36,0,0,0,37,50.2Z"/><path class="e" d="M109.1,52.24l3-2a44.13,44.13,0,0,0-5.56-6.77L104,46A40.82,40.82,0,0,1,109.1,52.24Z"/><path class="f" d="M112.7,58.87,116,57.45a43.64,43.64,0,0,0-3.92-7.21l-3,2A41.15,41.15,0,0,1,112.7,58.87Z"/><path class="e" d="M115.13,66.55l3.53-.74A43.76,43.76,0,0,0,116,57.45l-3.31,1.42A40.41,40.41,0,0,1,115.13,66.55Z"/><path class="f" d="M104,104l2.55,2.54a45.06,45.06,0,0,0,5.82-7.17l-3-2A40.87,40.87,0,0,1,104,104Z"/><path class="f" d="M36.94,59.75l-3.35-1.34a44.37,44.37,0,0,0-2.34,7.87l3.53.7A41,41,0,0,1,36.94,59.75Z"/><path class="e" d="M34.87,83.45l-3.53.74A43.76,43.76,0,0,0,34,92.55l3.31-1.42A40.41,40.41,0,0,1,34.87,83.45Z"/><path class="e" d="M34.78,67l-3.53-.7A44,44,0,0,0,30.38,75H34A41.62,41.62,0,0,1,34.78,67Z"/><path class="f" d="M34,75H30.38a44.83,44.83,0,0,0,1,9.19l3.53-.74A41.26,41.26,0,0,1,34,75Z"/><path class="f" d="M37.3,91.13,34,92.55a43.64,43.64,0,0,0,3.92,7.21l3-2A41.15,41.15,0,0,1,37.3,91.13Z"/><path class="f" d="M46,104l-2.55,2.54a44.62,44.62,0,0,0,7.17,5.82l2-3A40.84,40.84,0,0,1,46,104Z"/><path class="e" d="M40.9,97.76l-3,2a44.13,44.13,0,0,0,5.56,6.77L46,104A41.39,41.39,0,0,1,40.9,97.76Z"/><path class="e" d="M52.61,109.33l-2,3a44.47,44.47,0,0,0,7.77,4.06l1.34-3.35A40.7,40.7,0,0,1,52.61,109.33Z"/><path class="e" d="M40.67,52.61l-3-2a44.47,44.47,0,0,0-4.06,7.77l3.35,1.34A40.7,40.7,0,0,1,40.67,52.61Z"/><path class="f" d="M75,34V30.38a45,45,0,0,0-9.2,1l.75,3.53A41.26,41.26,0,0,1,75,34Z"/><path class="f" d="M58.87,37.3,57.45,34a43.64,43.64,0,0,0-7.21,3.92l2,3A40.43,40.43,0,0,1,58.87,37.3Z"/><path class="e" d="M66.55,34.87l-.75-3.53A43.89,43.89,0,0,0,57.45,34l1.42,3.31A40.41,40.41,0,0,1,66.55,34.87Z"/><path class="f" d="M46,46l-2.55-2.55a44.62,44.62,0,0,0-5.82,7.17l3,2A40.37,40.37,0,0,1,46,46Z"/><path class="e" d="M52.24,40.91l-2-3a44.13,44.13,0,0,0-6.77,5.56L46,46A40.18,40.18,0,0,1,52.24,40.91Z"/><path class="f" d="M115.13,66.55A41.26,41.26,0,0,1,116,75h3.61a44.83,44.83,0,0,0-1-9.19Z"/><path class="e" d="M115.22,83l3.53.7a43.93,43.93,0,0,0,.87-8.72H116A41.62,41.62,0,0,1,115.22,83Z"/><path class="f" d="M104,46l2.55-2.55a44.62,44.62,0,0,0-7.17-5.82l-2,3A40.37,40.37,0,0,1,104,46Z"/><path class="f" d="M113.06,90.25l3.35,1.34a44.37,44.37,0,0,0,2.34-7.87l-3.53-.7A41,41,0,0,1,113.06,90.25Z"/><path class="f" d="M59.75,113.06l-1.34,3.35a44.37,44.37,0,0,0,7.87,2.34l.7-3.53A41,41,0,0,1,59.75,113.06Z"/><path class="e" d="M97.39,40.67l2-3a44.47,44.47,0,0,0-7.77-4.06l-1.34,3.35A40.7,40.7,0,0,1,97.39,40.67Z"/><path class="f" d="M90.25,36.94l1.34-3.35a44.37,44.37,0,0,0-7.87-2.34L83,34.78A41,41,0,0,1,90.25,36.94Z"/><path class="e" d="M109.33,97.39l3,2a44.47,44.47,0,0,0,4.06-7.77l-3.35-1.34A40.7,40.7,0,0,1,109.33,97.39Z"/><path class="f" d="M75,116v3.61a44.83,44.83,0,0,0,9.19-1l-.74-3.53A41.26,41.26,0,0,1,75,116Z"/><path class="e" d="M83,34.78l.7-3.53A43.93,43.93,0,0,0,75,30.38V34A41.62,41.62,0,0,1,83,34.78Z"/><path class="e" d="M67,115.22l-.7,3.53a44,44,0,0,0,8.72.87V116A41.62,41.62,0,0,1,67,115.22Z"/><path class="e" d="M83.45,115.13l.74,3.53A43.76,43.76,0,0,0,92.55,116l-1.42-3.31A40.41,40.41,0,0,1,83.45,115.13Z"/><path class="f" d="M91.13,112.7,92.55,116a43.64,43.64,0,0,0,7.21-3.92l-2-3A41.15,41.15,0,0,1,91.13,112.7Z"/><path class="e" d="M97.76,109.1l2,3a44.13,44.13,0,0,0,6.77-5.56L104,104A41.36,41.36,0,0,1,97.76,109.1Z"/><path class="e" d="M24.32,83.08l.06.41Z"/><path class="e" d="M111.29,111.29a51.45,51.45,0,0,0,6.63-8.15A51.45,51.45,0,0,1,111.29,111.29Z"/><path class="e" d="M60,124.09c1.37.42,2.77.77,4.18,1.08C62.79,124.86,61.39,124.5,60,124.09Z"/><path class="e" d="M58,123.42c.55.2,1.11.38,1.67.55C59.09,123.8,58.53,123.62,58,123.42Z"/><path class="e" d="M125.62,66.51l0,.2Z"/><path class="g" d="M35.19,42.62a49.9,49.9,0,0,0-3.1,4.23A49.9,49.9,0,0,1,35.19,42.62Z"/><path class="g" d="M36.9,40.62c-.54.6-1.06,1.21-1.57,1.83C35.84,41.83,36.36,41.22,36.9,40.62Z"/><path class="h" d="M18.37,101.69l-.84.39.21-.09.63-.3ZM12,82.9h0Z"/><path class="i" d="M12.88,82.79,12,82.9h0q.31,2.64.86,5.2A63.12,63.12,0,0,0,16.58,100c.31.7.63,1.39,1,2.08h0l.84-.39c-.32-.68-.64-1.36-.94-2a62.89,62.89,0,0,1-3.7-11.74c-.35-1.68-.63-3.38-.85-5.11Z"/><path class="j" d="M18.37,101.69l-.63.3.63-.3Zm-5.49-18.9L12,82.9h0l.87-.11Z"/><polygon class="k" points="128.09 109.8 128.09 109.8 128.13 109.83 128.13 109.83 128.09 109.8 128.09 109.8"/><path class="l" d="M127.36,109.32a63.51,63.51,0,0,1-8.09,10,61.07,61.07,0,0,1-5.17,4.6l.55.69h0l0,0a61.08,61.08,0,0,0,5.24-4.67,63.74,63.74,0,0,0,8.21-10.09l0,0h0l-.73-.48Z"/><path class="m" d="M114.1,123.87h0l.55.69h0l-.55-.69Zm13.26-14.55h0l.73.48h0l-.73-.48Z"/><polygon class="n" points="61.83 136.21 61.64 137.11 61.83 136.21 61.83 136.21 61.83 136.21"/><path class="o" d="M43.48,129.1l-.46.79A62.09,62.09,0,0,0,51.37,134a63.55,63.55,0,0,0,10.27,3.13h0l.19-.9a62.82,62.82,0,0,1-18.35-7.11Z"/><polygon class="p" points="138.03 67.1 137.12 67.21 137.12 67.21 137.64 67.15 138.03 67.1 138.03 67.1"/><path class="q" d="M132.47,47.92h0l-.84.39c.32.68.64,1.36.94,2a62.16,62.16,0,0,1,3.7,11.74c.35,1.68.63,3.38.85,5.11l.91-.11q-.32-2.64-.86-5.19A62.77,62.77,0,0,0,133.42,50c-.31-.7-.63-1.39-.95-2.08Z"/><rect class="r" x="137.11" y="67.18" width="0.52" transform="translate(-7.31 17.68) rotate(-7.17)"/><polygon class="s" points="106.98 20.11 106.56 20.84 106.95 20.16 106.98 20.11 106.98 20.11"/><path class="t" d="M88.36,12.89h0l-.19.9a63,63,0,0,1,10.12,3.08,64,64,0,0,1,8.23,4l0-.06.42-.73a62.81,62.81,0,0,0-18.62-7.22Z"/><polygon class="u" points="106.95 20.16 106.56 20.84 106.52 20.91 106.52 20.91 106.95 20.16 106.95 20.16"/><path class="v" d="M21.87,40.17l-.09.13a63.37,63.37,0,0,0-9.09,22.28A64.34,64.34,0,0,0,11.47,75a62.4,62.4,0,0,0,.5,7.9h0a64.32,64.32,0,0,1-.49-7.9,63.39,63.39,0,0,1,1.22-12.41,62.08,62.08,0,0,1,3.32-11.2,63.05,63.05,0,0,1,5.76-11.06l.09-.13,0,0Z"/><path class="w" d="M21.91,40.2l-.09.13a63.05,63.05,0,0,0-5.76,11.06,62.08,62.08,0,0,0-3.32,11.2A63.39,63.39,0,0,0,11.52,75,64.32,64.32,0,0,0,12,82.9l.87-.11A64.53,64.53,0,0,1,12.4,75a62.49,62.49,0,0,1,1.2-12.24,61.47,61.47,0,0,1,3.28-11A62.39,62.39,0,0,1,22.56,40.8l.08-.12-.73-.48Z"/><polygon class="x" points="21.87 40.17 21.87 40.17 21.91 40.2 22.64 40.68 22.64 40.68 21.87 40.17 21.87 40.17"/><path class="y" d="M17.74,102l-.21.09A63.69,63.69,0,0,0,40.3,128.22c.89.58,1.8,1.14,2.72,1.67h0l.46-.79h0l-.44.75c-.92-.53-1.83-1.09-2.71-1.67A63.5,63.5,0,0,1,22.2,110.25a62.64,62.64,0,0,1-4.62-8.19l.16-.07Z"/><polygon class="z" points="43.48 129.09 43.02 129.89 43.48 129.09 43.48 129.09 43.48 129.09"/><path class="aa" d="M18.37,101.69h0l-.63.3-.16.07a62.64,62.64,0,0,0,4.62,8.19,63.5,63.5,0,0,0,18.13,17.93c.88.58,1.79,1.14,2.71,1.67l.44-.75c-.91-.53-1.8-1.09-2.67-1.66a62.44,62.44,0,0,1-10.08-8.17,62.56,62.56,0,0,1-12.36-17.58Z"/><path class="ab" d="M114.1,123.87c-1.4,1.12-2.84,2.2-4.34,3.2a62.73,62.73,0,0,1-47,9.33l-.93-.19-.19.9.94.2A64.34,64.34,0,0,0,75,138.53a63.15,63.15,0,0,0,35.27-10.69c1.52-1,3-2.11,4.41-3.25Z"/><path class="ac" d="M138,67.1l-.91.11a63.19,63.19,0,0,1-.72,20,61.88,61.88,0,0,1-9,22l-.08.13.77.51.09-.13A63.86,63.86,0,0,0,134,98.63,63.39,63.39,0,0,0,138,67.1Z"/><path class="ad" d="M106.52,20.9c.91.53,1.8,1.09,2.67,1.66a62.44,62.44,0,0,1,10.08,8.17,62.56,62.56,0,0,1,12.36,17.58l.84-.39A63.69,63.69,0,0,0,109.7,21.78c-.89-.58-1.8-1.14-2.72-1.67Z"/><path class="ae" d="M75,11.47a63.56,63.56,0,0,0-13.1,1.36,62.89,62.89,0,0,0-22.17,9.33c-1.52,1-3,2.11-4.41,3.25h0l0,0c1.42-1.13,2.88-2.23,4.4-3.24a63.43,63.43,0,0,1,22.16-9.33A64.16,64.16,0,0,1,75,11.52a63.39,63.39,0,0,1,12.41,1.22l.94.19-.18.86h0l.19-.9-.94-.2A63.56,63.56,0,0,0,75,11.47Z"/><rect class="af" x="87.8" y="13.34" width="0.92" transform="translate(56.68 96.83) rotate(-77.87)"/><path class="ag" d="M75,11.52a64.16,64.16,0,0,0-13.09,1.35A63.43,63.43,0,0,0,39.75,22.2c-1.52,1-3,2.11-4.4,3.24l.55.69c1.4-1.12,2.84-2.2,4.34-3.2a62.47,62.47,0,0,1,21.86-9.2,63.13,63.13,0,0,1,25.14-.13l.93.19.18-.86-.94-.19A63.39,63.39,0,0,0,75,11.52Z"/><polygon class="ah" points="35.32 25.41 35.9 26.13 35.9 26.13 35.9 26.13 35.35 25.44 35.32 25.41 35.32 25.41"/><path class="ai" d="M35.32,25.41a62.82,62.82,0,0,0-5.24,4.67,63.74,63.74,0,0,0-8.21,10.09l.77.51a63.51,63.51,0,0,1,8.09-9.95,61.07,61.07,0,0,1,5.17-4.6l-.58-.72Z"/><path class="e" d="M85.91,128.54a2.59,2.59,0,1,1,2.59,2.59A2.59,2.59,0,0,1,85.91,128.54Z"/><path class="e" d="M59.65,21.46a2.59,2.59,0,1,1,2.59,2.59A2.59,2.59,0,0,1,59.65,21.46Z"/><path class="e" d="M18.22,65.29a2.59,2.59,0,1,1,2.59,2.59A2.59,2.59,0,0,1,18.22,65.29Z"/><path class="e" d="M32.65,113.19a2.59,2.59,0,1,1,2.59,2.59A2.59,2.59,0,0,1,32.65,113.19Z"/><path class="e" d="M125.86,87.67a2.59,2.59,0,1,1,2.59,2.59A2.59,2.59,0,0,1,125.86,87.67Z"/><path class="e" d="M113.1,38.29a2.59,2.59,0,1,1,2.59,2.59A2.59,2.59,0,0,1,113.1,38.29Z"/><path class="aj" d="M109.35,97.4A40.92,40.92,0,0,0,115.2,83a40.84,40.84,0,0,0,.79-8,41.52,41.52,0,0,0-.88-8.45,40.5,40.5,0,0,0-2.42-7.68,41,41,0,0,0-3.58-6.64c-.33-.49-.68-1-1-1.46l-.33-.44c-.26-.35-.53-.69-.8-1-.12-.16-.24-.31-.37-.46-.34-.42-.7-.83-1.06-1.24l-.13-.14c-.45-.5-.91-1-1.39-1.47s-1-1-1.55-1.47h0l-.13-.11c-.44-.39-.88-.77-1.33-1.14l-.49-.39c-.35-.28-.71-.56-1.08-.83L99,41.72c-.51-.37-1-.73-1.55-1.07A40.92,40.92,0,0,0,83,34.8,40.84,40.84,0,0,0,75,34a41.52,41.52,0,0,0-8.45.88,40.5,40.5,0,0,0-7.68,2.42A40.81,40.81,0,0,0,40.65,52.6,40.92,40.92,0,0,0,34.8,67,40.84,40.84,0,0,0,34,75a41.52,41.52,0,0,0,.88,8.45,40.5,40.5,0,0,0,2.42,7.68,41,41,0,0,0,3.58,6.64c.33.49.68,1,1,1.46l.33.44c.26.35.53.69.8,1l.37.45c.34.42.7.84,1.06,1.24s1,1.08,1.52,1.61a40.59,40.59,0,0,0,6.6,5.35A40.92,40.92,0,0,0,67,115.2a40.84,40.84,0,0,0,8,.79,41.52,41.52,0,0,0,8.45-.88,40.5,40.5,0,0,0,7.68-2.42A40.81,40.81,0,0,0,109.35,97.4Zm-1-46.2-.22-.3Zm-.79-1.07c-.19-.24-.38-.49-.58-.73C107.22,49.64,107.41,49.89,107.6,50.13Zm-1.06-1.33c-.33-.4-.66-.79-1-1.18C105.88,48,106.21,48.4,106.54,48.8Zm-4.23-4.39c-.42-.38-.85-.73-1.27-1.09Zm-1.9-1.59-.78-.6Zm-1.6-1.2-.31-.21ZM41.61,98.79l.22.31Zm.79,1.07c.19.25.38.5.58.74C42.78,100.36,42.59,100.11,42.4,99.86Zm1.06,1.34c.33.4.67.79,1,1.18C44.13,102,43.79,101.6,43.46,101.2Z"/><path class="c" d="M114.27,66.73a40.25,40.25,0,0,0-10.91-20.09,40.7,40.7,0,0,0-6.45-5.24,39.62,39.62,0,0,0-7-3.64,40.34,40.34,0,0,0-7.07-2.12c-.57-.11-1.15-.21-1.73-.3l-.53-.07-1.26-.16-.57-.06c-.53,0-1.06-.09-1.6-.12H77c-.66,0-1.32-.05-2-.05s-1.4,0-2.09.05h0l-.17,0c-.57,0-1.14.07-1.71.13l-.6.07-1.32.17-.57.09c-.61.1-1.21.2-1.81.33a40.22,40.22,0,0,0-29,24.35,40,40,0,0,0-2,23.19,40.3,40.3,0,0,0,31.42,31.09c.57.11,1.15.21,1.73.3l.53.07,1.26.16.57.06c.53,0,1.06.09,1.6.12.72,0,1.43.06,2.16.06a39.84,39.84,0,0,0,22.27-6.77,39.53,39.53,0,0,0,6.09-5,40.7,40.7,0,0,0,5.24-6.45,39.62,39.62,0,0,0,3.64-7,40.08,40.08,0,0,0,2.12-7.07,40.29,40.29,0,0,0-.09-16.12ZM81.63,35.43l-.36-.06Zm-1.28-.19-.91-.12ZM78.7,35l-1.52-.11Zm-8.39.11-1,.13Zm-1.93.28-.37.06Zm0,79.14.37.06Zm2.94.38c.51,0,1,.09,1.52.12C72.31,115,71.81,115,71.3,115Z"/></svg>